<svg width="42" height="42" viewBox="0 0 42 42" fill="none" xmlns="http://www.w3.org/2000/svg">
<g clip-path="url(#clip0_742_9576)">
<path d="M21 0C9.4206 0 0 9.4206 0 21C0 32.5794 9.4206 42 21 42C32.5794 42 42 32.5794 42 21C42 9.4206 32.5794 0 21 0ZM21 38.1818C11.5258 38.1818 3.81818 30.4741 3.81818 21C3.81818 11.5259 11.5258 3.81818 21 3.81818C30.4742 3.81818 38.1818 11.5259 38.1818 21C38.1818 30.4741 30.4741 38.1818 21 38.1818Z" fill="#4FB44A"/>
<path d="M28.8754 13.5757L18.0758 24.3752L13.1262 19.4254C12.3808 18.68 11.1719 18.6799 10.4264 19.4253C9.6808 20.1709 9.6808 21.3796 10.4264 22.1251L16.7259 28.4249C17.0838 28.7829 17.5694 28.9841 18.0757 28.9841H18.0758C18.5821 28.9841 19.0677 28.7829 19.4257 28.425L31.5753 16.2757C32.3208 15.5301 32.3208 14.3214 31.5753 13.5758C30.8297 12.8303 29.621 12.8301 28.8754 13.5757Z" fill="#4FB44A"/>
</g>
<defs>
<clipPath id="clip0_742_9576">
<rect width="42" height="42" fill="white"/>
</clipPath>
</defs>
</svg>
