<svg width="42" height="42" viewBox="0 0 42 42" fill="none" xmlns="http://www.w3.org/2000/svg">
<g clip-path="url(#clip0_742_9565)">
<path d="M21 0C9.4206 0 0 9.42073 0 21.0001C0 32.5795 9.4206 42 21 42C32.5794 42 42 32.5795 42 21.0001C42 9.42073 32.5794 0 21 0ZM21 38.1818C11.5258 38.1818 3.81818 30.4742 3.81818 21.0001C3.81818 11.5261 11.5258 3.81818 21 3.81818C30.4742 3.81818 38.1818 11.5261 38.1818 21.0001C38.1818 30.4742 30.4741 38.1818 21 38.1818Z" fill="#F3C81C"/>
<path d="M21 8.90918C19.5967 8.90918 18.4551 10.0516 18.4551 11.4558C18.4551 12.8587 19.5967 14.0001 21 14.0001C22.4033 14.0001 23.545 12.8587 23.545 11.4558C23.545 10.0516 22.4033 8.90918 21 8.90918ZM21.0003 17.8183C19.946 17.8183 19.0912 18.673 19.0912 19.7274V31.1819C19.0912 32.2362 19.946 33.091 21.0003 33.091C22.0546 33.091 22.9094 32.2362 22.9094 31.1819V19.7274C22.9094 18.673 22.0546 17.8183 21.0003 17.8183Z" fill="#F3C81C"/>
</g>
<defs>
<clipPath id="clip0_742_9565">
<rect width="42" height="42" fill="white"/>
</clipPath>
</defs>
</svg>
