<svg width="42" height="42" viewBox="0 0 42 42" fill="none" xmlns="http://www.w3.org/2000/svg">
<rect width="42" height="42" rx="21" fill="#E1401C"/>
<path d="M22.7333 25.5651H19.2961L18.401 7.98535H23.6284L22.7333 25.5651ZM18.2578 31.2579C18.2578 30.2554 18.5204 29.5513 19.0455 29.1455C19.5706 28.7158 20.227 28.501 21.0147 28.501C21.7547 28.501 22.3872 28.7039 22.9123 29.1097C23.4613 29.5155 23.7358 30.2315 23.7358 31.2579C23.7358 32.2366 23.4613 32.9407 22.9123 33.3703C22.3872 33.8 21.7547 34.0148 21.0147 34.0148C20.227 34.0148 19.5706 33.8 19.0455 33.3703C18.5204 32.9407 18.2578 32.2366 18.2578 31.2579Z" fill="white"/>
</svg>
