<svg width="42" height="42" viewBox="0 0 42 42" fill="none" xmlns="http://www.w3.org/2000/svg">
<rect width="42" height="42" rx="21" fill="white"/>
<path d="M22.7364 25.5651H19.2992L18.4041 7.98535H23.6315L22.7364 25.5651ZM18.2609 31.2579C18.2609 30.2554 18.5235 29.5513 19.0486 29.1455C19.5737 28.7158 20.2301 28.501 21.0178 28.501C21.7578 28.501 22.3903 28.7039 22.9154 29.1097C23.4644 29.5155 23.7389 30.2315 23.7389 31.2579C23.7389 32.2366 23.4644 32.9407 22.9154 33.3703C22.3903 33.8 21.7578 34.0148 21.0178 34.0148C20.2301 34.0148 19.5737 33.8 19.0486 33.3703C18.5235 32.9407 18.2609 32.2366 18.2609 31.2579Z" fill="#4E1BE0"/>
</svg>
