<svg width="15" height="16" viewBox="0 0 15 16" fill="none" xmlns="http://www.w3.org/2000/svg">
<path fill-rule="evenodd" clip-rule="evenodd" d="M14.5116 2.7907V13.2093C14.5116 14.7505 13.2621 16 11.7209 16H2.7907C1.24947 16 0 14.7505 0 13.2093V2.7907C0 1.24947 1.24947 0 2.7907 0H11.7209C13.2621 0 14.5116 1.24947 14.5116 2.7907ZM10.9767 5.95349H3.53488C3.22679 5.95349 2.97674 6.20353 2.97674 6.51163C2.97674 6.81972 3.22679 7.06977 3.53488 7.06977H10.9767C11.2848 7.06977 11.5349 6.81972 11.5349 6.51163C11.5349 6.20353 11.2848 5.95349 10.9767 5.95349ZM10.9767 8.93023H3.53488C3.22679 8.93023 2.97674 9.18028 2.97674 9.48837C2.97674 9.79646 3.22679 10.0465 3.53488 10.0465H10.9767C11.2848 10.0465 11.5349 9.79646 11.5349 9.48837C11.5349 9.18028 11.2848 8.93023 10.9767 8.93023ZM7.25581 2.97674H3.53488C3.22679 2.97674 2.97674 3.22679 2.97674 3.53488C2.97674 3.84298 3.22679 4.09302 3.53488 4.09302H7.25581C7.56391 4.09302 7.81395 3.84298 7.81395 3.53488C7.81395 3.22679 7.56391 2.97674 7.25581 2.97674ZM10.9767 11.907H3.53488C3.22679 11.907 2.97674 12.157 2.97674 12.4651C2.97674 12.7732 3.22679 13.0233 3.53488 13.0233H10.9767C11.2848 13.0233 11.5349 12.7732 11.5349 12.4651C11.5349 12.157 11.2848 11.907 10.9767 11.907Z" fill="#E1E1E1"/>
</svg>
