<svg width="16" height="16" viewBox="0 0 16 16" fill="none" xmlns="http://www.w3.org/2000/svg">
<path d="M8.00033 0.666748C6.54993 0.666748 5.13211 1.09684 3.92615 1.90264C2.72019 2.70843 1.78025 3.85374 1.22521 5.19374C0.67017 6.53373 0.524945 8.00822 0.807903 9.43074C1.09086 10.8533 1.78929 12.1599 2.81488 13.1855C3.84046 14.2111 5.14714 14.9095 6.56967 15.1925C7.99219 15.4755 9.46668 15.3302 10.8067 14.7752C12.1467 14.2202 13.292 13.2802 14.0978 12.0743C14.9036 10.8683 15.3337 9.45048 15.3337 8.00008C15.3314 6.05586 14.558 4.19194 13.1832 2.81717C11.8085 1.4424 9.94455 0.669042 8.00033 0.666748ZM10.4717 10.4714C10.3466 10.5964 10.1771 10.6666 10.0003 10.6666C9.82355 10.6666 9.65401 10.5964 9.529 10.4714L7.529 8.47141C7.40396 8.34642 7.3337 8.17688 7.33366 8.00008V4.00008C7.33366 3.82327 7.4039 3.6537 7.52892 3.52868C7.65395 3.40365 7.82352 3.33341 8.00033 3.33341C8.17714 3.33341 8.34671 3.40365 8.47173 3.52868C8.59676 3.6537 8.667 3.82327 8.667 4.00008V7.72408L10.4717 9.52875C10.5966 9.65377 10.6669 9.82331 10.6669 10.0001C10.6669 10.1769 10.5966 10.3464 10.4717 10.4714Z" fill="#C7C2C2"/>
</svg>
