<svg width="16" height="16" viewBox="0 0 16 16" fill="none" xmlns="http://www.w3.org/2000/svg">
<g clip-path="url(#clip0_1_14687)">
<path d="M10.909 0.909091C10.909 0.407014 10.502 0 9.99991 0C9.49783 0 9.09082 0.407014 9.09082 0.909091V2C9.09082 2.50208 9.49783 2.90909 9.99991 2.90909C10.502 2.90909 10.909 2.50208 10.909 2V0.909091Z" fill="#C7C2C2"/>
<path d="M11.6364 1.09082V1.99991C11.6364 2.4339 11.464 2.85012 11.1571 3.15699C10.8502 3.46387 10.434 3.63627 10 3.63627C9.56601 3.63627 9.14979 3.46387 8.84292 3.15699C8.53604 2.85012 8.36364 2.4339 8.36364 1.99991V1.09082H5.09091V1.99991C5.09091 2.4339 4.91851 2.85012 4.61163 3.15699C4.30475 3.46387 3.88854 3.63627 3.45455 3.63627C3.02055 3.63627 2.60434 3.46387 2.29746 3.15699C1.99058 2.85012 1.81818 2.4339 1.81818 1.99991V1.09082C1.33597 1.09082 0.873508 1.28238 0.532533 1.62335C0.191558 1.96433 0 2.42679 0 2.909V4.72718H13.4545V2.909C13.4545 2.42679 13.263 1.96433 12.922 1.62335C12.581 1.28238 12.1186 1.09082 11.6364 1.09082Z" fill="#C7C2C2"/>
<path d="M4.3631 0.909091C4.3631 0.407014 3.95609 0 3.45401 0C2.95194 0 2.54492 0.407014 2.54492 0.909091V2C2.54492 2.50208 2.95194 2.90909 3.45401 2.90909C3.95609 2.90909 4.3631 2.50208 4.3631 2V0.909091Z" fill="#C7C2C2"/>
<path d="M8 12.3637C7.99972 11.6433 8.17801 10.9341 8.51891 10.2996C8.85981 9.66497 9.35268 9.12479 9.95345 8.72732H9.45454C9.26166 8.72732 9.07668 8.65069 8.94028 8.5143C8.80389 8.37791 8.72727 8.19293 8.72727 8.00004V7.27277C8.72727 7.07989 8.80389 6.8949 8.94028 6.75851C9.07668 6.62212 9.26166 6.5455 9.45454 6.5455H10.1818C10.3747 6.5455 10.5597 6.62212 10.6961 6.75851C10.8325 6.8949 10.9091 7.07989 10.9091 7.27277V8.00004C10.909 8.09385 10.8906 8.18674 10.8549 8.2735C11.6868 7.96062 12.5955 7.91499 13.4545 8.14295V5.45459H0V12.3637C0 12.6024 0.0470287 12.8389 0.138401 13.0595C0.229773 13.2801 0.363699 13.4805 0.532533 13.6493C0.701367 13.8182 0.901802 13.9521 1.12239 14.0435C1.34299 14.1348 1.57941 14.1819 1.81818 14.1819H8.4C8.13662 13.6119 8.00014 12.9915 8 12.3637ZM4.36364 11.6364C4.36364 11.8293 4.28701 12.0143 4.15062 12.1507C4.01423 12.2871 3.82925 12.3637 3.63636 12.3637H2.90909C2.71621 12.3637 2.53122 12.2871 2.39483 12.1507C2.25844 12.0143 2.18182 11.8293 2.18182 11.6364V10.9091C2.18182 10.7162 2.25844 10.5313 2.39483 10.3949C2.53122 10.2585 2.71621 10.1819 2.90909 10.1819H3.63636C3.82925 10.1819 4.01423 10.2585 4.15062 10.3949C4.28701 10.5313 4.36364 10.7162 4.36364 10.9091V11.6364ZM4.36364 8.00004C4.36364 8.19293 4.28701 8.37791 4.15062 8.5143C4.01423 8.65069 3.82925 8.72732 3.63636 8.72732H2.90909C2.71621 8.72732 2.53122 8.65069 2.39483 8.5143C2.25844 8.37791 2.18182 8.19293 2.18182 8.00004V7.27277C2.18182 7.07989 2.25844 6.8949 2.39483 6.75851C2.53122 6.62212 2.71621 6.5455 2.90909 6.5455H3.63636C3.82925 6.5455 4.01423 6.62212 4.15062 6.75851C4.28701 6.8949 4.36364 7.07989 4.36364 7.27277V8.00004ZM7.63636 11.6364C7.63636 11.8293 7.55974 12.0143 7.42335 12.1507C7.28696 12.2871 7.10197 12.3637 6.90909 12.3637H6.18182C5.98893 12.3637 5.80395 12.2871 5.66756 12.1507C5.53117 12.0143 5.45454 11.8293 5.45454 11.6364V10.9091C5.45454 10.7162 5.53117 10.5313 5.66756 10.3949C5.80395 10.2585 5.98893 10.1819 6.18182 10.1819H6.90909C7.10197 10.1819 7.28696 10.2585 7.42335 10.3949C7.55974 10.5313 7.63636 10.7162 7.63636 10.9091V11.6364ZM7.63636 8.00004C7.63636 8.19293 7.55974 8.37791 7.42335 8.5143C7.28696 8.65069 7.10197 8.72732 6.90909 8.72732H6.18182C5.98893 8.72732 5.80395 8.65069 5.66756 8.5143C5.53117 8.37791 5.45454 8.19293 5.45454 8.00004V7.27277C5.45454 7.07989 5.53117 6.8949 5.66756 6.75851C5.80395 6.62212 5.98893 6.5455 6.18182 6.5455H6.90909C7.10197 6.5455 7.28696 6.62212 7.42335 6.75851C7.55974 6.8949 7.63636 7.07989 7.63636 7.27277V8.00004Z" fill="#C7C2C2"/>
<path d="M12.3639 8.72729C11.6447 8.72729 10.9416 8.94056 10.3436 9.34013C9.74565 9.7397 9.27957 10.3076 9.00434 10.9721C8.72911 11.6365 8.6571 12.3677 8.79741 13.0731C8.93772 13.7785 9.28405 14.4264 9.79261 14.935C10.3012 15.4435 10.9491 15.7898 11.6545 15.9302C12.3599 16.0705 13.091 15.9984 13.7555 15.7232C14.4199 15.448 14.9879 14.9819 15.3874 14.3839C15.787 13.7859 16.0003 13.0829 16.0003 12.3637C16.0003 11.8861 15.9062 11.4133 15.7235 10.9721C15.5407 10.5309 15.2729 10.13 14.9352 9.79236C14.5975 9.45469 14.1967 9.18684 13.7555 9.0041C13.3143 8.82135 12.8414 8.72729 12.3639 8.72729ZM13.7119 13.7117C13.6437 13.7798 13.5512 13.8181 13.4548 13.8181C13.3584 13.8181 13.2659 13.7798 13.1977 13.7117L12.1068 12.6207C12.0386 12.5526 12.0003 12.4601 12.0003 12.3637V10.1818C12.0003 10.0854 12.0386 9.99291 12.1068 9.92471C12.175 9.85652 12.2675 9.8182 12.3639 9.8182C12.4603 9.8182 12.5528 9.85652 12.621 9.92471C12.6892 9.99291 12.7275 10.0854 12.7275 10.1818V12.2131L13.7119 13.1975C13.7801 13.2657 13.8184 13.3581 13.8184 13.4546C13.8184 13.551 13.7801 13.6435 13.7119 13.7117Z" fill="#C7C2C2"/>
</g>
<defs>
<clipPath id="clip0_1_14687">
<rect width="16" height="16" fill="white"/>
</clipPath>
</defs>
</svg>
