<svg width="90" height="114" viewBox="0 0 90 114" fill="none" xmlns="http://www.w3.org/2000/svg">
<g clip-path="url(#clip0_511_6423)">
<mask id="mask0_511_6423" style="mask-type:luminance" maskUnits="userSpaceOnUse" x="0" y="0" width="90" height="114">
<path d="M90 0H0V114H90V0Z" fill="white"/>
</mask>
<g mask="url(#mask0_511_6423)">
<path fill-rule="evenodd" clip-rule="evenodd" d="M38.04 21.3516C37.4838 21.3516 37.0312 21.7712 37.0312 22.2873C37.0312 22.8039 37.4838 23.2244 38.04 23.2244C38.5957 23.2244 39.0471 22.8039 39.0471 22.2873C39.0471 21.7712 38.5957 21.3516 38.04 21.3516Z" fill="#194F9E"/>
<path fill-rule="evenodd" clip-rule="evenodd" d="M38.4531 20.8438C38.6472 20.8924 38.8279 20.9742 38.9853 21.0821L39.3624 20.8483L38.4531 20.8438Z" fill="#194F9E"/>
<path fill-rule="evenodd" clip-rule="evenodd" d="M44.8125 18.7559L45.0852 22.0039L45.3565 18.7559H44.8125Z" fill="#194F9E"/>
<path fill-rule="evenodd" clip-rule="evenodd" d="M45.4923 15.1816H44.6955L44.2969 16.6729L44.6955 18.1654H45.4923L45.8914 16.6729L45.4923 15.1816Z" fill="#194F9E"/>
<path fill-rule="evenodd" clip-rule="evenodd" d="M52.2982 25.3768C52.9246 25.3768 53.434 24.9029 53.434 24.321C53.434 24.0043 53.2792 23.7235 53.0402 23.5312C52.7848 23.6904 52.4784 23.7828 52.1484 23.7828C51.8972 23.7828 51.66 23.7278 51.4478 23.632C51.2724 23.8164 51.1641 24.0556 51.1641 24.321C51.1641 24.9029 51.6731 25.3768 52.2982 25.3768Z" fill="#194F9E"/>
<path fill-rule="evenodd" clip-rule="evenodd" d="M53.6866 20.7109C53.6866 20.7109 53.4982 20.7913 53.2738 20.8328C53.1167 20.8616 52.6759 20.8672 52.6094 20.855C52.8487 20.9227 53.0644 21.0423 53.243 21.1981C53.3452 21.0026 53.4987 20.8366 53.6866 20.7109Z" fill="#194F9E"/>
<path fill-rule="evenodd" clip-rule="evenodd" d="M44.2935 23.5358C44.0743 23.743 43.9375 24.0273 43.9375 24.3408C43.9375 24.9748 44.4928 25.4907 45.1743 25.4907C45.8556 25.4907 46.4104 24.9748 46.4104 24.3408C46.4104 23.7068 45.8556 23.1914 45.1743 23.1914C44.8346 23.1914 44.5269 23.3194 44.3036 23.5258C44.3004 23.5292 44.2967 23.5325 44.2935 23.5358Z" fill="#194F9E"/>
<path fill-rule="evenodd" clip-rule="evenodd" d="M44.945 28.1902H45.2202C47.3439 28.1902 48.8658 28.1869 50.412 27.9574L51.4207 27.5733C49.3587 27.3068 47.236 27.1699 45.1102 27.174C43.0094 27.1691 40.8579 27.3038 38.8125 27.5638L39.9041 27.9803C41.4024 28.1887 42.8849 28.1902 44.945 28.1902Z" fill="#194F9E"/>
<path fill-rule="evenodd" clip-rule="evenodd" d="M50.8125 20.8483L51.1887 21.0815C51.3475 20.9736 51.5269 20.8921 51.7209 20.8438L50.8125 20.8483Z" fill="#194F9E"/>
<path fill-rule="evenodd" clip-rule="evenodd" d="M48.4922 24.3256C48.4922 24.8415 48.9445 25.2612 49.5002 25.2612C50.055 25.2612 50.5068 24.8415 50.5068 24.3256C50.5068 23.8086 50.055 23.3887 49.5002 23.3887C48.9445 23.3887 48.4922 23.8086 48.4922 24.3256Z" fill="#194F9E"/>
<path fill-rule="evenodd" clip-rule="evenodd" d="M36.935 21.194C37.1286 21.0257 37.3678 20.9008 37.6332 20.8377C37.6332 20.8377 37.1117 20.8509 36.8876 20.8128C36.6618 20.7743 36.4922 20.7109 36.4922 20.7109C36.6797 20.8356 36.8324 21.0003 36.935 21.194Z" fill="#194F9E"/>
<path fill-rule="evenodd" clip-rule="evenodd" d="M55.6195 29.6951C55.7652 29.5396 55.8372 29.3155 55.8258 29.1725C55.7918 29.0687 55.7686 28.9585 55.7596 28.8457C54.2833 29.1547 52.6624 29.3894 50.8174 29.6762C49.8846 30.254 48.4755 31.0079 46.2344 32.1011L47.2221 32.0169C50.8425 31.9135 54.6173 30.7687 55.6195 29.6951Z" fill="#194F9E"/>
<path fill-rule="evenodd" clip-rule="evenodd" d="M38.0041 25.2511C38.6297 25.2704 39.1544 24.813 39.1756 24.2307C39.1854 23.9673 39.0862 23.7273 38.9207 23.5382C38.6673 23.6926 38.3658 23.7823 38.0418 23.7823C37.7162 23.7823 37.4138 23.6917 37.1598 23.5371C37.01 23.708 36.9159 23.9239 36.9069 24.1608C36.8866 24.7428 37.3785 25.2318 38.0041 25.2511Z" fill="#194F9E"/>
<path fill-rule="evenodd" clip-rule="evenodd" d="M42.2489 58.3392V58.331C43.1434 58.0831 44.089 57.9476 45.0684 57.9476C46.0345 57.9476 46.9682 58.0788 47.8511 58.3203C48.1011 58.3875 48.3467 58.4634 48.5875 58.5488L46.5582 45.9868L45.0765 36.8125L43.5944 45.9845C43.5985 45.9852 43.603 45.9865 43.6079 45.9868L41.5781 58.5488C41.7978 58.4705 42.0226 58.4023 42.2489 58.3392Z" fill="#194F9E"/>
<path fill-rule="evenodd" clip-rule="evenodd" d="M45.091 26.6711L45.0959 26.6706H45.1165H45.1413C45.134 26.6706 45.1259 26.6711 45.1181 26.6711C47.5806 26.6653 50.0393 26.8469 52.4063 27.2008L52.9256 27.0035C52.9263 26.5932 52.9271 25.8601 52.9268 25.8258C52.7294 25.8981 52.5151 25.9393 52.291 25.9393C51.67 25.9393 51.126 25.634 50.8186 25.1767C50.5276 25.5654 50.0442 25.8217 49.497 25.8217C48.608 25.8217 47.8849 25.1498 47.8849 24.3254C47.8849 23.4985 48.608 22.8276 49.497 22.8276C50.0442 22.8276 50.5273 23.0831 50.8186 23.4718C50.8592 23.4107 50.9044 23.3518 50.9538 23.2971C50.7634 23.1039 50.6263 22.8668 50.565 22.602C49.1556 22.6379 47.9907 22.9404 46.8158 23.5766C46.9407 23.8077 47.0135 24.0676 47.0135 24.3435C47.0135 25.2857 46.1882 26.0541 45.1743 26.0541C44.1597 26.0541 43.3345 25.2857 43.3345 24.3435C43.3345 24.0948 43.3926 23.8594 43.4957 23.6461C42.2751 22.9601 41.0764 22.6382 39.6136 22.6016C39.5674 22.8016 39.4774 22.9854 39.3552 23.1475C39.4724 23.2748 39.5674 23.4186 39.6381 23.5745C39.9174 23.1284 40.4349 22.8276 41.028 22.8276C41.9166 22.8276 42.6395 23.4985 42.6395 24.3254C42.6395 25.1498 41.9166 25.8217 41.028 25.8217C40.3838 25.8217 39.8277 25.4662 39.5711 24.9559C39.2687 25.482 38.6647 25.834 37.9819 25.813C37.6263 25.8019 37.4196 25.7069 37.2503 25.6609L37.25 26.9661L37.8402 27.1906C40.1832 26.8446 42.6614 26.6668 45.091 26.6711Z" fill="#194F9E"/>
<path fill-rule="evenodd" clip-rule="evenodd" d="M42.0298 24.3256C42.0298 23.8086 41.5784 23.3887 41.0215 23.3887C40.467 23.3887 40.0156 23.8086 40.0156 24.3256C40.0156 24.8415 40.467 25.2612 41.0215 25.2612C41.5784 25.2612 42.0298 24.8415 42.0298 24.3256Z" fill="#194F9E"/>
<path fill-rule="evenodd" clip-rule="evenodd" d="M35.5 15.4332L35.9125 16.3343C36.1791 16.4003 36.445 16.4761 36.7123 16.5621L37.1876 16.1245L36.4926 14.5762L35.5 15.4332Z" fill="#194F9E"/>
<path fill-rule="evenodd" clip-rule="evenodd" d="M51.7344 14.9599L52.5714 15.7385L53.2566 14.2094L52.3964 13.4668L51.7344 14.9599Z" fill="#194F9E"/>
<path fill-rule="evenodd" clip-rule="evenodd" d="M54.2581 16.3351L54.6723 15.4331L53.6789 14.5762L52.9844 16.1241L53.4609 16.5637C53.7273 16.4776 53.9934 16.4022 54.2581 16.3351Z" fill="#194F9E"/>
<path fill-rule="evenodd" clip-rule="evenodd" d="M36.9062 14.2099L37.5919 15.7385L38.4289 14.9605L37.7672 13.4668L36.9062 14.2099Z" fill="#194F9E"/>
<path fill-rule="evenodd" clip-rule="evenodd" d="M37.8281 16.2416L38.2502 17.1641C38.3887 17.2271 38.5275 17.2895 38.6659 17.3585L39.2829 16.8637L38.663 15.4648L37.8281 16.2416Z" fill="#194F9E"/>
<path fill-rule="evenodd" clip-rule="evenodd" d="M37.5034 16.8442L37.4044 16.625L37.2656 16.7533C37.3451 16.7823 37.4243 16.8136 37.5034 16.8442Z" fill="#194F9E"/>
<path fill-rule="evenodd" clip-rule="evenodd" d="M52.6719 16.8442C52.7512 16.8136 52.8302 16.7823 52.9091 16.7533H52.905L52.7661 16.625L52.6719 16.8442Z" fill="#194F9E"/>
<path fill-rule="evenodd" clip-rule="evenodd" d="M48.9375 18.0221L49.4969 18.5426H49.5018C49.5269 18.5248 49.5526 18.5087 49.5789 18.4917L50.2494 17.004L49.5167 16.4082L48.9375 18.0221Z" fill="#194F9E"/>
<path fill-rule="evenodd" clip-rule="evenodd" d="M45.6562 22.6936C45.9859 22.7762 46.2786 22.9403 46.5071 23.163C47.7671 22.4758 49.045 22.1363 50.5481 22.0961C50.5811 21.8593 50.6728 21.6377 50.8108 21.4491L49.0308 20.3442C49.0308 20.3442 52.4702 20.4483 53.1629 20.3442C53.8549 20.2408 53.9723 20.0242 53.9723 20.0242L51.0556 19.4325L55.9381 16.543C52.4714 16.8993 48.8668 19.0502 45.6562 22.6936Z" fill="#194F9E"/>
<path fill-rule="evenodd" clip-rule="evenodd" d="M54.9297 16.1875C55.1047 16.1542 55.2801 16.1199 55.4541 16.0946L55.1047 15.7969L54.9297 16.1875Z" fill="#194F9E"/>
<path fill-rule="evenodd" clip-rule="evenodd" d="M48.4922 19.2812C48.6826 19.1325 48.8745 18.991 49.067 18.8521L48.7459 18.5586L48.4922 19.2812Z" fill="#194F9E"/>
<path fill-rule="evenodd" clip-rule="evenodd" d="M52.1342 23.2244C52.6899 23.2244 53.1409 22.8039 53.1409 22.2873C53.1409 21.7711 52.6899 21.3516 52.1342 21.3516C51.5773 21.3516 51.125 21.7711 51.125 22.2873C51.125 22.8039 51.5773 23.2244 52.1342 23.2244Z" fill="#194F9E"/>
<path fill-rule="evenodd" clip-rule="evenodd" d="M50.4062 17.9626C50.6047 17.844 50.8032 17.7294 51.0025 17.621L50.6705 17.3555L50.4062 17.9626Z" fill="#194F9E"/>
<path fill-rule="evenodd" clip-rule="evenodd" d="M49.6953 15.891L50.4602 16.5133L51.0953 15.079L50.2632 14.3047L49.6953 15.891Z" fill="#194F9E"/>
<path fill-rule="evenodd" clip-rule="evenodd" d="M50.9062 16.8637L51.5253 17.3597C51.6624 17.2916 51.8005 17.2294 51.9382 17.1663L52.361 16.2414L51.5257 15.4648L50.9062 16.8637Z" fill="#194F9E"/>
<path fill-rule="evenodd" clip-rule="evenodd" d="M67.9724 65.7965L71.8394 66.4828C71.3113 64.0019 70.5826 61.8611 69.9469 61.3671C69.0689 61.3259 68.2622 61.2154 67.6789 60.7402L67.6635 61.0877C67.3566 61.0877 67.0445 61.0795 66.7344 61.0587C67.284 62.9176 67.7138 64.586 67.9724 65.7965Z" fill="#194F9E"/>
<path fill-rule="evenodd" clip-rule="evenodd" d="M67.5251 74.53C67.6403 73.99 67.8436 70.3878 67.8294 69.0742L64.4869 69.6433C64.4244 70.6368 64.2188 72.4942 64.2188 72.4942C64.5568 74.0568 66.0252 77.9972 66.1821 78.4216C66.7772 77.5666 67.1828 76.1304 67.5251 74.53Z" fill="#194F9E"/>
<path fill-rule="evenodd" clip-rule="evenodd" d="M69.5087 81.1561C69.5307 81.1386 69.5537 81.1202 69.5741 81.1055C70.2264 80.6431 70.9681 80.285 71.7718 80.0579C71.9073 79.6242 72.0235 79.1704 72.1253 78.7043C72.7724 75.7224 72.7374 72.136 72.245 68.734C72.2366 68.6775 72.198 68.4378 72.1819 68.334L68.3724 68.983C68.3997 70.1861 68.312 71.6027 68.1788 73.2077C68.1256 73.8385 67.9593 74.9817 68.0092 75.3508C68.3088 77.2862 68.7211 78.7715 69.2741 80.4025C69.3476 80.6221 69.4276 80.882 69.5087 81.1561Z" fill="#194F9E"/>
<path fill-rule="evenodd" clip-rule="evenodd" d="M65.8033 78.8892C65.5931 78.3134 65.0255 76.794 64.9419 76.5707C63.4092 75.8891 61.4924 75.5107 59.2812 75.291C59.4027 75.3368 59.7006 75.4514 59.7277 75.4623C61.9126 76.3185 64.0856 77.4392 65.8033 78.8892Z" fill="#194F9E"/>
<path fill-rule="evenodd" clip-rule="evenodd" d="M58.9791 70.5859L55.2656 71.2187L57.0517 74.5312C58.1979 74.1459 59.2259 72.8168 58.9791 70.5859Z" fill="#194F9E"/>
<path fill-rule="evenodd" clip-rule="evenodd" d="M75.9027 50.7382C75.7567 49.5468 71.4529 45.954 71.4516 45.957C71.1594 46.4234 70.0836 46.4445 68.9219 46.2045C69.07 46.3495 69.4448 46.7728 69.4265 46.728C70.9861 48.2249 72.3986 49.9166 72.6808 50.9238C73.9994 51.3272 75.2472 51.643 75.6729 51.3574C75.768 51.2936 75.9307 51.0782 75.9027 50.7382Z" fill="#194F9E"/>
<path fill-rule="evenodd" clip-rule="evenodd" d="M61.746 75.0399C62.2098 74.7307 63.2198 73.511 63.7171 72.3809C63.8097 71.6003 63.8945 70.5911 63.9452 69.7402L60.0625 70.4013C60.8225 71.9062 61.3477 73.57 61.746 75.0399Z" fill="#194F9E"/>
<path fill-rule="evenodd" clip-rule="evenodd" d="M67.7969 42.8125C68.6108 43.2024 69.6358 43.8741 70.6981 44.688C71.1917 44.8446 73.348 45.1427 73.8234 44.6794C72.2012 43.6102 70.4777 42.8242 69.0744 42.6562C68.5928 42.6582 68.1683 42.7114 67.7969 42.8125Z" fill="#194F9E"/>
<path fill-rule="evenodd" clip-rule="evenodd" d="M80.0719 60.9244C80.0333 60.8206 79.7759 60.1825 79.6562 59.8897C78.2589 56.4316 77.0408 53.6492 75.2765 51.9605C74.6609 51.993 73.8027 51.796 72.6279 51.4395C72.5608 51.6054 72.44 51.7413 72.2683 51.8406C71.9244 52.0379 71.3986 52.0655 70.75 51.9348C72.228 53.1598 72.6847 54.089 73.2111 54.9538C74.1104 56.4282 74.8024 58.576 75.0988 59.7335C76.3872 60.5274 77.6655 61.2331 80.0719 60.9244Z" fill="#194F9E"/>
<path fill-rule="evenodd" clip-rule="evenodd" d="M71.9814 51.4129C72.095 51.3475 72.1451 51.2539 72.1451 51.1095V51.0408C71.912 50.223 70.6877 48.7947 69.3314 47.4495C69.1034 47.6188 67.1284 47.6256 66.1562 47.3125C66.4421 47.646 68.7043 50.152 69.2918 50.9014C70.6642 51.532 71.6312 51.6143 71.9814 51.4129Z" fill="#194F9E"/>
<path fill-rule="evenodd" clip-rule="evenodd" d="M71.2274 60.5039C71.274 60.7216 71.3114 61.384 71.3114 61.384C71.3114 61.384 70.7732 61.3851 70.6562 61.384C71.3009 62.279 71.9448 64.3507 72.4059 66.5836L76.4339 67.2989C76.0065 65.5325 75.2081 62.8567 74.0921 61.3273C73.065 61.2171 72.1359 60.9511 71.2274 60.5039Z" fill="#194F9E"/>
<path fill-rule="evenodd" clip-rule="evenodd" d="M42.7245 36.5152C42.1598 36.2517 41.5789 35.9819 41.0078 35.7773V39.7079C41.2275 40.0495 42.8341 42.4167 43.3692 43.1151L44.3178 37.2154C43.9378 37.0566 43.0947 36.6868 42.7245 36.5152Z" fill="#194F9E"/>
<path fill-rule="evenodd" clip-rule="evenodd" d="M74.5622 60.0152C74.2032 58.5228 72.7744 53.7469 69.3385 51.5469C69.231 51.9261 68.9931 52.1249 68.782 52.2234C68.4284 52.388 67.9868 52.4166 67.4351 52.2442C67.2606 52.1903 66.6541 51.891 66.3906 51.7281C66.5673 51.8869 66.9642 52.1865 67.088 52.3076C69.0032 54.1786 70.3964 57.0275 71.0293 59.6348L71.0813 59.8481C72.2766 60.5333 73.3196 60.8446 74.7712 60.8873C74.7377 60.8122 74.645 60.3968 74.5622 60.0152Z" fill="#194F9E"/>
<path fill-rule="evenodd" clip-rule="evenodd" d="M76.8259 69.1523C76.8259 69.1523 76.6977 68.429 76.5125 67.5957L72.7188 68.2425C72.732 68.3168 72.763 68.484 72.7642 68.4924C75.4117 71.2802 77.1085 70.9862 77.1085 70.9862C77.1085 70.6346 76.8259 69.1523 76.8259 69.1523Z" fill="#194F9E"/>
<path fill-rule="evenodd" clip-rule="evenodd" d="M53.0469 56.2309L55.4598 55.0835L53.1087 53.4785L53.0469 56.2309Z" fill="#194F9E"/>
<path fill-rule="evenodd" clip-rule="evenodd" d="M74.2691 44.9715C73.648 45.4948 72.7362 45.439 71.5469 45.3035C73.5446 46.9375 75.5226 48.9533 76.3762 50.4839C77.4963 51.0039 78.3094 51.3719 78.7402 51.2078C78.9199 51.1383 79.2016 50.9319 79.1825 50.6507C78.8814 48.9639 76.7579 46.6681 74.3096 44.9606C74.3364 44.9323 74.3048 44.9409 74.2691 44.9715Z" fill="#194F9E"/>
<path fill-rule="evenodd" clip-rule="evenodd" d="M76.9505 74.9013C76.9505 74.6873 76.9505 74.473 76.9473 74.2635C76.9267 72.9854 76.8544 72.3672 76.7691 71.4865C75.4952 71.3017 74.6985 70.853 72.8657 69.2793C73.1287 71.3567 73.4274 74.7835 72.7455 78.4039C72.6512 78.9024 72.5397 79.4039 72.4062 79.9068C72.7589 79.839 73.123 79.7976 73.4937 79.7813L73.8711 78.2982L74.0002 78.1522L74.4698 77.6179L73.79 77.8513L73.593 77.9194L73.6304 77.7273L74.1683 74.956L74.2056 74.7632L74.3647 74.8922L74.9172 75.3389L74.6842 74.6891L74.6198 74.5107L74.819 74.5446L76.9505 74.9013Z" fill="#194F9E"/>
<path fill-rule="evenodd" clip-rule="evenodd" d="M54.299 63.7114L59.9078 53.7266C59.9078 53.7266 49.0962 58.7353 49.1251 58.7485C51.3929 59.7488 53.365 61.5299 54.299 63.7114Z" fill="#194F9E"/>
<path fill-rule="evenodd" clip-rule="evenodd" d="M49.1867 39.7079V35.7773C48.6156 35.9819 48.035 36.2517 47.47 36.5152C47.0616 36.7041 46.2951 37.0365 45.875 37.208L46.8234 43.1037C47.3571 42.4086 48.9678 40.049 49.1867 39.7079Z" fill="#194F9E"/>
<path fill-rule="evenodd" clip-rule="evenodd" d="M49.3438 57.9808L51.8134 56.8181L50.4178 54.748L49.3438 57.9808Z" fill="#194F9E"/>
<path fill-rule="evenodd" clip-rule="evenodd" d="M73.7546 67.4583C73.7546 67.4583 54.3428 63.937 54.354 63.965C54.7204 64.9352 55.0155 66.1488 55.0155 67.2216C55.0155 68.4338 54.7992 69.5919 54.3438 70.6535C54.3384 70.6665 73.7546 67.4583 73.7546 67.4583Z" fill="#194F9E"/>
<path fill-rule="evenodd" clip-rule="evenodd" d="M57.1562 60.1467C57.8247 60.5527 58.5412 60.4336 58.5866 60.4298C58.5108 59.6584 58.2514 58.8848 58.0906 58.4648L57.1562 60.1467Z" fill="#194F9E"/>
<path fill-rule="evenodd" clip-rule="evenodd" d="M64.3561 65.1544L67.3983 65.6945C67.1344 64.4947 66.7008 62.8396 66.154 61.0007C65.5008 60.9159 64.8842 60.7558 64.3862 60.459L64.4426 60.8891C64.4426 60.8891 63.6291 60.9521 63.4375 60.9828C63.8803 62.2992 64.1912 63.877 64.3561 65.1544Z" fill="#194F9E"/>
<path fill-rule="evenodd" clip-rule="evenodd" d="M58.4531 57.7892C58.6926 58.4463 58.9468 59.3275 59.1083 59.9108C59.5205 60.3784 60.6185 60.5622 61.3523 60.4032C60.92 58.6184 60.1735 57.0756 59.5484 55.8164L58.4531 57.7892Z" fill="#194F9E"/>
<path fill-rule="evenodd" clip-rule="evenodd" d="M55.2656 63.5411L58.5227 64.1196C58.4757 63.1679 58.3526 61.821 58.0527 60.9464C57.823 60.9347 57.2221 60.7637 56.8829 60.6309L55.2656 63.5411Z" fill="#194F9E"/>
<path fill-rule="evenodd" clip-rule="evenodd" d="M59.0684 64.2174L60.9385 64.549C60.8745 63.7302 60.5448 61.4128 60.4391 60.9294C60.0097 60.8667 59.6895 60.8192 59.1155 60.418C59.1257 60.6014 59.1273 60.8386 59.1273 60.8386C59.0258 60.9022 58.8391 60.9007 58.6094 60.9336C58.9061 61.8837 59.0258 63.2693 59.0684 64.2174Z" fill="#194F9E"/>
<path fill-rule="evenodd" clip-rule="evenodd" d="M70.7398 60.8814C70.7008 60.5658 70.6623 60.0341 70.5417 59.6104C69.4412 55.7345 68.0009 53.7231 66.1767 52.0625C65.7618 52.4545 64.7815 52.4326 64.0565 52.3285C64.0089 52.4487 63.929 52.5518 63.6875 52.6021C65.7554 54.3711 66.6375 56.8771 67.52 59.7458C67.8998 60.8077 69.4197 60.8767 70.7398 60.8814Z" fill="#194F9E"/>
<path fill-rule="evenodd" clip-rule="evenodd" d="M39.1719 17.6212C39.3706 17.7294 39.5688 17.8441 39.7672 17.9626L39.4986 17.3555L39.1719 17.6212Z" fill="#194F9E"/>
<path fill-rule="evenodd" clip-rule="evenodd" d="M34.7422 16.0945C34.9168 16.1199 35.0921 16.1542 35.2672 16.1874L35.0874 15.7969L34.7422 16.0945Z" fill="#194F9E"/>
<path fill-rule="evenodd" clip-rule="evenodd" d="M22.8477 84.4632C23.2212 84.3492 23.8248 84.0375 24.1529 83.6854C25.2602 82.6262 25.8144 81.284 26.5803 80.0382C27.3032 78.8654 28.0473 77.6658 29.132 76.582C26.4009 77.835 24.1244 79.1549 22.7715 81.4474C22.579 81.7646 22.1569 82.5816 21.8309 83.0055C21.5159 83.4156 20.4531 84.3448 20.4531 84.3448C20.4531 84.3448 20.7442 84.4696 21.1319 84.5534C21.5199 84.6376 22.3788 84.6067 22.8477 84.4632Z" fill="#194F9E"/>
<path fill-rule="evenodd" clip-rule="evenodd" d="M30.9054 75.291C28.6941 75.5102 26.7774 75.8891 25.2442 76.5707C25.1611 76.794 24.5927 78.3132 24.3828 78.8892C25.7963 77.4862 28.2745 76.3185 30.4587 75.462C30.486 75.4514 30.7835 75.3368 30.9054 75.291Z" fill="#194F9E"/>
<path fill-rule="evenodd" clip-rule="evenodd" d="M22.3451 69.0742C22.3248 70.3515 22.534 73.9837 22.6513 74.5301C22.9939 76.1308 23.3993 77.5671 23.9944 78.4221C24.1515 77.9972 25.6194 74.0572 25.9584 72.4942C25.9584 72.4942 25.7529 70.6316 25.6921 69.6444L22.3451 69.0742Z" fill="#194F9E"/>
<path fill-rule="evenodd" clip-rule="evenodd" d="M34.9226 71.2166L31.1645 70.5762C30.9035 72.8393 31.9799 74.1524 33.1358 74.5408L34.9226 71.2166Z" fill="#194F9E"/>
<path fill-rule="evenodd" clip-rule="evenodd" d="M21.4505 82.6703C21.6932 82.3058 22.1394 81.4582 22.3784 81.0733C22.8429 80.3121 23.157 79.9397 23.8212 79.3095C23.8212 79.3095 23.2894 78.5556 23.1108 77.9688C22.2298 78.7484 21.6978 79.7239 21.2743 80.9619C21.1213 81.4076 20.3203 83.7563 20.3203 83.7563C20.4904 83.599 21.1453 83.1307 21.4505 82.6703Z" fill="#194F9E"/>
<path fill-rule="evenodd" clip-rule="evenodd" d="M35.1619 67.2228C35.1619 66.1497 35.4569 64.9354 35.8239 63.965C35.8341 63.9372 16.4219 67.4595 16.4219 67.4595C16.4219 67.4595 35.839 70.6678 35.8332 70.6545C35.3779 69.593 35.1619 68.4349 35.1619 67.2228Z" fill="#194F9E"/>
<path fill-rule="evenodd" clip-rule="evenodd" d="M31.6094 60.4301C31.6544 60.4343 32.3704 60.553 33.0398 60.147L32.1053 58.4648C31.9442 58.8856 31.6844 59.6591 31.6094 60.4301Z" fill="#194F9E"/>
<path fill-rule="evenodd" clip-rule="evenodd" d="M27.3029 61.0472C26.8681 62.3167 26.5658 63.8197 26.3984 65.0518L28.6896 64.6454C28.7525 63.7805 29.143 61.3778 29.1875 60.9647C29.1875 60.9647 28.8414 60.9451 28.489 60.8695L28.4996 60.5898C28.2537 60.7548 27.7904 60.9703 27.3029 61.0472Z" fill="#194F9E"/>
<path fill-rule="evenodd" clip-rule="evenodd" d="M34.9132 63.5411L33.2967 60.6309C32.957 60.7637 32.3554 60.9347 32.1264 60.9464C31.8261 61.8218 31.7104 63.169 31.6641 64.1173L34.9132 63.5411Z" fill="#194F9E"/>
<path fill-rule="evenodd" clip-rule="evenodd" d="M28.4386 75.0375C28.8357 73.5681 29.3592 71.902 30.1184 70.3986L26.2344 69.7363C26.2852 70.5877 26.3749 71.5967 26.4673 72.3787C26.9643 73.5088 27.9746 74.7285 28.4386 75.0375Z" fill="#194F9E"/>
<path fill-rule="evenodd" clip-rule="evenodd" d="M15.4062 60.8873C16.8577 60.8446 17.9006 60.533 19.0961 59.8481L19.1477 59.6348C19.7801 57.0275 21.1737 54.1786 23.0894 52.3076C23.2131 52.186 23.6097 51.8869 23.7863 51.7279C23.5232 51.8905 22.9159 52.1903 22.7422 52.2442C22.1906 52.4163 21.7488 52.388 21.3952 52.2231C21.1838 52.1249 20.9463 51.9261 20.8387 51.5469C17.4026 53.7469 15.974 58.5228 15.6152 60.0152C15.5324 60.3963 15.4386 60.8122 15.4062 60.8873Z" fill="#194F9E"/>
<path fill-rule="evenodd" clip-rule="evenodd" d="M28.8281 60.4032C29.5625 60.5622 30.6602 60.3784 31.0729 59.9108C31.2337 59.3278 31.4877 58.4463 31.7273 57.7892L30.6316 55.8164C30.007 57.0756 29.2609 58.6184 28.8281 60.4032Z" fill="#194F9E"/>
<path fill-rule="evenodd" clip-rule="evenodd" d="M24.0196 47.3125C23.0482 47.6261 21.0726 47.6188 20.8444 47.4495C19.4882 48.7947 18.2639 50.223 18.0312 51.0408V51.1095C18.0312 51.254 18.0808 51.3475 18.1945 51.4129C18.5452 51.6143 19.5121 51.532 20.8847 50.9018C21.472 50.152 23.7339 47.646 24.0196 47.3125Z" fill="#194F9E"/>
<path fill-rule="evenodd" clip-rule="evenodd" d="M24.0264 61.0012C23.4751 62.8566 23.0303 64.4868 22.7656 65.6955L25.8128 65.1549C25.9762 63.8759 26.2968 62.3069 26.7429 60.9831C26.5505 60.9521 25.7373 60.8891 25.7373 60.8891L25.7934 60.459C25.2961 60.7563 24.6787 60.9159 24.0264 61.0012Z" fill="#194F9E"/>
<path fill-rule="evenodd" clip-rule="evenodd" d="M60.7291 87.7011C60.7291 87.7011 61.6912 87.656 62.3584 87.1641C63.0819 86.6319 63.61 85.5383 63.1509 83.9814C62.5546 81.9572 60.453 79.487 59.0156 78.207C59.0156 78.207 61.3538 82.0519 61.6497 83.0572C62.0016 84.2534 61.8068 84.8839 61.629 85.5527C61.3997 86.4187 60.9341 87.2492 60.7291 87.7011Z" fill="#194F9E"/>
<path fill-rule="evenodd" clip-rule="evenodd" d="M67.3548 81.4474C66.0018 79.1549 63.7863 77.8345 61.0547 76.582C62.1397 77.6659 62.8843 78.8655 63.6057 80.0384C64.3723 81.2835 64.8657 82.6263 65.973 83.6856C66.2559 83.989 66.7418 84.2606 67.1096 84.4036C67.119 84.3743 67.1276 84.3433 67.1376 84.3143C67.2906 83.8678 67.693 83.1603 68.0449 82.6383C67.7778 82.213 67.501 81.6882 67.3548 81.4474Z" fill="#194F9E"/>
<path fill-rule="evenodd" clip-rule="evenodd" d="M71.517 90.0458C72.1498 89.9289 72.1917 88.9437 71.7922 88.1707C71.519 87.6404 70.6803 86.477 70.6803 86.477L67.4487 85.75C67.4321 85.9295 67.4219 86.1102 67.4219 86.294C67.4219 86.8949 67.5685 87.6254 67.7474 88.1724C69.0745 88.1442 70.8841 90.1627 71.517 90.0458Z" fill="#194F9E"/>
<path fill-rule="evenodd" clip-rule="evenodd" d="M75.2437 75.0352L75.7349 76.476L74.5345 75.5182L74.1875 77.3069L75.6716 76.8216L74.6381 78.0597L76.6376 78.3951L76.1408 76.8997L77.3395 77.8522L77.6894 76.053L76.2061 76.5568L77.2036 75.3642L75.2437 75.0352Z" fill="#194F9E"/>
<path fill-rule="evenodd" clip-rule="evenodd" d="M80.4839 60.5176C80.5835 60.7118 80.6942 61.3268 80.6942 61.3268C80.6942 61.3268 79.8186 61.4635 79.5312 61.4817C82.3508 65.0552 83.0158 69.0138 83.5597 70.9288C83.8175 71.8382 84.4341 72.2862 84.9541 72.7518C85.1645 72.9404 86.2989 74.0393 88.7825 74.6843C89.0369 74.7499 89.6532 74.8314 89.7563 74.8322C89.5127 72.1439 89.0626 69.8752 88.4966 67.9092C88.4431 67.7239 88.3927 67.5356 88.3375 67.3567C87.7807 65.5427 87.1259 63.999 86.4512 62.6266C86.4365 62.6352 85.9954 61.8315 85.7887 61.4434L85.7872 61.4408C85.2545 61.5522 84.7037 61.6327 84.1225 61.6327C83.0297 61.6327 81.8353 61.3578 80.4839 60.5176Z" fill="#194F9E"/>
<path fill-rule="evenodd" clip-rule="evenodd" d="M11.0166 50.6507C10.9971 50.9319 11.2792 51.1383 11.459 51.2078C11.8893 51.372 12.7028 51.0044 13.8236 50.484C14.6772 48.9535 16.655 46.9375 18.653 45.3037C17.464 45.4391 16.5512 45.4946 15.9295 44.9716C15.8938 44.941 15.8626 44.9323 15.8899 44.9603C13.4416 46.6679 11.3186 48.964 11.0166 50.6507Z" fill="#194F9E"/>
<path fill-rule="evenodd" clip-rule="evenodd" d="M34.7266 55.083L37.1395 56.2306L37.0769 53.4785L34.7266 55.083Z" fill="#194F9E"/>
<path fill-rule="evenodd" clip-rule="evenodd" d="M38.375 56.8186L40.8456 57.9812L39.806 54.748L38.375 56.8186Z" fill="#194F9E"/>
<path fill-rule="evenodd" clip-rule="evenodd" d="M17.9855 68.332C17.9701 68.4395 17.9408 68.6614 17.9307 68.733C17.4383 72.1349 17.4029 75.7214 18.0502 78.7037C18.1577 79.1663 18.309 79.8741 18.5343 80.4762C18.9561 81.6041 19.9974 83.2791 19.9974 83.2791C20.1922 82.6475 20.5583 81.238 20.8405 80.4011C21.3928 78.7705 21.8666 77.2853 22.1662 75.3497C22.2163 74.9807 22.0497 73.8376 21.9966 73.2071C21.8622 71.5867 21.7725 70.1984 21.8026 68.9821L17.9855 68.332Z" fill="#194F9E"/>
<path fill-rule="evenodd" clip-rule="evenodd" d="M35.8899 63.7114C36.8232 61.5315 38.794 59.7518 41.0599 58.7503C41.0899 58.7368 30.2812 53.7266 30.2812 53.7266L35.8899 63.7114Z" fill="#194F9E"/>
<path fill-rule="evenodd" clip-rule="evenodd" d="M31.1115 78.2051C29.6741 79.4851 27.5726 81.9554 26.9767 83.9791C26.5173 85.5365 27.0452 86.6297 27.7687 87.1621C28.4361 87.6539 29.3977 87.699 29.3977 87.699C29.1932 87.2471 28.7279 86.4169 28.4977 85.5508C28.3208 84.8817 28.126 84.2512 28.4774 83.0549C28.7734 82.0501 31.1115 78.2051 31.1115 78.2051Z" fill="#194F9E"/>
<path fill-rule="evenodd" clip-rule="evenodd" d="M9.82444 71.9109C10.0676 71.7958 10.0603 71.525 10.0274 71.3268C9.97139 70.989 9.81023 70.5327 9.72741 70.3415C9.30324 69.3552 8.51125 68.74 8.24659 68.5298C8.06229 68.3837 7.7002 68.2751 7.7002 68.2751C7.53458 68.2343 7.35109 68.2438 7.19116 68.3041C7.18223 68.3076 7.17289 68.3112 7.16356 68.3155C7.04665 68.3649 6.97033 68.4237 6.90376 68.5438C6.83678 68.6637 6.75357 69.0831 6.64639 69.1743C6.61838 69.1982 6.59321 69.214 6.56926 69.2222C6.29972 69.3237 6.29689 68.5291 6.29322 68.5143C6.35412 68.457 6.66102 68.3445 6.79213 68.2012C6.86601 68.1045 7.13594 67.777 7.13677 67.5876C7.11849 67.303 6.7024 67.302 6.41015 67.412C6.40649 67.4135 6.40243 67.4147 6.39837 67.4163C6.33545 67.3264 6.22098 67.2781 6.10488 67.3038C6.09677 67.3056 6.08865 67.3079 6.08012 67.3109C5.92384 67.3705 5.70382 67.6456 5.70382 67.6456C5.98513 67.1158 5.53495 66.4962 4.92037 66.6985L4.65489 66.123L4.28265 66.2664L3.90838 66.4046L4.14747 66.9887C3.55481 67.241 3.69567 67.9778 4.29402 68.1758C4.29402 68.1758 3.9299 68.1208 3.77361 68.1796C3.76549 68.1826 3.75696 68.1863 3.75046 68.1901C3.64736 68.2463 3.60189 68.3565 3.62382 68.4611C3.61975 68.4622 3.61528 68.4642 3.61205 68.4649C3.32017 68.5751 3.02182 68.8442 3.22113 69.0611C3.36362 69.1969 3.80283 69.2573 3.92786 69.2789C4.13042 69.298 4.43488 69.1799 4.52093 69.1808C4.52945 69.1944 5.12211 69.7671 4.85258 69.8691C4.82943 69.8773 4.79941 69.8823 4.76124 69.8831C4.61633 69.8875 4.24287 69.6403 4.10485 69.5976C3.96724 69.5543 3.86737 69.5619 3.74722 69.6016C3.73748 69.6045 3.72815 69.608 3.7184 69.6116C3.55927 69.6716 3.42004 69.7826 3.33154 69.9205C3.33154 69.9205 3.15293 70.2313 3.1302 70.4563C3.09732 70.778 2.98853 71.732 3.42207 72.7151C3.5065 72.9064 3.73179 73.3377 3.94409 73.617C4.06913 73.7804 4.26641 73.9793 4.52742 73.9042C4.53554 73.9023 4.54448 73.8992 4.55381 73.8959C4.83837 73.7887 5.58854 73.1585 5.61655 73.1313C5.67175 73.2864 6.825 74.0815 7.03365 74.0608C7.02595 74.0898 8.16783 73.66 8.13983 73.6442C8.30585 73.5253 8.53886 72.2064 8.46213 72.0603C8.50394 72.0615 9.51388 72.0287 9.79883 71.9215C9.80823 71.9177 9.8163 71.9144 9.82444 71.9109Z" fill="#194F9E"/>
<path fill-rule="evenodd" clip-rule="evenodd" d="M23.0574 43.0801C22.359 43.3427 21.3979 43.9257 20.362 44.6828L19.2109 45.7037C19.3327 45.9058 20.7042 45.9801 22.4209 45.3525C23.0401 44.817 23.5901 44.3763 23.9822 44.1026C23.8807 43.874 23.7524 43.6714 23.5945 43.4981C23.4448 43.3336 23.2628 43.197 23.0574 43.0801Z" fill="#194F9E"/>
<path fill-rule="evenodd" clip-rule="evenodd" d="M41.2615 75.7893C39.7742 75.2119 38.4524 74.2678 37.4336 73.1308C36.864 72.4938 36.3842 71.7844 36.0143 71.0198C35.9986 70.9855 34.4771 73.7353 33.0341 76.3572L30.2578 81.0184L37.8578 77.407L41.2615 75.7893Z" fill="#194F9E"/>
<path fill-rule="evenodd" clip-rule="evenodd" d="M37.7078 71.4987L45.1092 59.3649L52.4443 71.4987H37.7078ZM52.354 72.5127C53.5769 71.0512 54.3081 69.2149 54.3081 67.2202C54.3081 63.3236 51.5205 60.0236 47.7085 58.964C46.8735 58.7322 45.9918 58.6055 45.0776 58.6055C44.1732 58.6055 43.3 58.73 42.4738 58.9577L42.4755 58.964C38.6638 60.0236 35.875 63.3236 35.875 67.2202C35.875 69.2149 36.6066 71.0512 37.8292 72.5127C39.5215 74.515 42.1395 75.837 45.0776 75.837C48.0316 75.837 50.6632 74.5339 52.354 72.5127Z" fill="#194F9E"/>
<path fill-rule="evenodd" clip-rule="evenodd" d="M25.9468 85.5877C26.9644 81.1088 29.9582 78.3786 31.8418 76.9541L32.2739 76.1749L32.8123 75.1719C32.1353 75.3897 31.4459 75.6277 30.7563 75.896C30.7485 75.899 30.742 75.9021 30.7346 75.9051C28.9839 77.165 28.0426 78.6832 27.0538 80.2903C26.2804 81.5458 25.6289 82.9455 24.4124 84.0852C24.1059 84.3809 23.7238 84.5602 23.2059 84.8179L22.8125 87.3741C22.8125 87.3741 25.7178 86.5957 25.9468 85.5877Z" fill="#194F9E"/>
<path fill-rule="evenodd" clip-rule="evenodd" d="M45.1011 60.709L38.9219 70.8399H51.2241L45.1011 60.709Z" fill="#194F9E"/>
<path fill-rule="evenodd" clip-rule="evenodd" d="M9.11493 74.9651L13.4738 82.4638C12.9311 80.3129 12.6904 77.6862 12.6948 75.1193C12.6961 74.8518 12.7021 74.5892 12.7139 74.3364C12.763 73.2899 12.7833 72.4221 12.8828 71.4367L12.5247 71.3786C12.543 71.1119 12.6198 70.545 12.6161 70.5488C11.7596 71.3035 11.1113 71.7846 10.4582 72.0971C10.3461 72.2537 10.2028 72.3507 10.0903 72.4042C10.068 72.414 10.0433 72.4242 10.0165 72.4347C9.82121 72.5084 9.30733 72.5454 8.99396 72.5706C8.98868 72.8553 8.9554 73.2608 8.75 73.7978L8.81575 74.4888C8.93185 74.6851 9.02441 74.8235 9.11493 74.9651Z" fill="#194F9E"/>
<path fill-rule="evenodd" clip-rule="evenodd" d="M16.0571 86.496L17.9516 80.4451C17.7617 79.8126 17.5868 79.1186 17.4402 78.404C16.7583 74.7835 17.0573 71.357 17.3209 69.2793C15.4872 70.8533 14.6907 71.3017 13.4165 71.4869C13.3321 72.3673 13.259 72.9854 13.2383 74.2638C13.2346 74.5201 13.2339 74.782 13.2346 75.0451C13.2302 78.5314 13.6731 82.1666 14.75 84.5846L16.0571 86.496Z" fill="#194F9E"/>
<path fill-rule="evenodd" clip-rule="evenodd" d="M41.4326 18.5586L41.1172 18.8517C41.3088 18.991 41.5007 19.1324 41.6917 19.2812L41.4326 18.5586Z" fill="#194F9E"/>
<path fill-rule="evenodd" clip-rule="evenodd" d="M39.9219 17.0037L40.5917 18.4874C40.6188 18.5057 40.6472 18.5225 40.6753 18.5426L41.2351 18.0218L40.6558 16.4082L39.9219 17.0037Z" fill="#194F9E"/>
<path fill-rule="evenodd" clip-rule="evenodd" d="M29.7464 60.9298C29.6416 61.4136 29.3138 63.729 29.25 64.5478L31.1229 64.2154C31.1659 63.2712 31.2825 61.8761 31.5763 60.9342C31.347 60.9006 31.1603 60.9025 31.0584 60.8387C31.0584 60.8387 31.0605 60.6017 31.0701 60.418C30.4961 60.8196 30.1767 60.8671 29.7464 60.9298Z" fill="#194F9E"/>
<path fill-rule="evenodd" clip-rule="evenodd" d="M8.62401 68.1081L8.63904 68.1206C8.95687 68.3719 9.80116 69.041 10.2717 70.136C10.3675 70.3586 10.5436 70.8568 10.6074 71.2433C10.6155 71.2953 10.6163 71.341 10.6204 71.3892C11.2045 71.0591 11.8699 70.5368 12.7191 69.7511C13.1891 66.5662 14.1127 63.5889 15.4279 61.3888C15.3105 61.3931 14.7357 61.3945 14.7357 61.3945C14.7357 61.3945 14.8311 60.7009 14.9086 60.4414C13.9442 61.004 12.8624 61.4829 11.2849 61.4983C10.1791 63.1704 9.1846 64.3296 8.07031 67.8152C8.23269 67.8776 8.45798 67.9768 8.62401 68.1081Z" fill="#194F9E"/>
<path fill-rule="evenodd" clip-rule="evenodd" d="M39.3692 29.6758C37.524 29.3891 35.9162 29.1544 34.4402 28.8457C34.4297 28.9725 34.4009 29.0932 34.3594 29.2087C34.3603 29.2214 34.364 29.2332 34.3632 29.2464C34.3517 29.3891 34.4504 29.5393 34.5961 29.6946C35.5988 30.7684 39.6183 31.7971 42.971 32.0129L43.9581 32.1008C41.8474 31.1476 40.3186 30.2739 39.3692 29.6758Z" fill="#194F9E"/>
<path fill-rule="evenodd" clip-rule="evenodd" d="M39.1327 19.4323L36.2164 20.0238C36.2164 20.0238 36.4876 20.2464 37.0258 20.3442C37.5641 20.4425 41.1582 20.3442 41.1582 20.3442L39.3762 21.4501C39.5142 21.6392 39.6047 21.8596 39.6376 22.0954C41.1855 22.1369 42.4946 22.4921 43.7903 23.2218C43.9956 23.003 44.2595 22.8339 44.5584 22.7342C44.5611 22.7327 44.5652 22.7301 44.5652 22.7301C41.3478 19.0634 37.7289 16.9003 34.25 16.543L39.1327 19.4323Z" fill="#194F9E"/>
<path fill-rule="evenodd" clip-rule="evenodd" d="M66.6065 43.4982C66.4486 43.6714 66.3206 43.8737 66.2188 44.1024C66.6114 44.3763 67.1615 44.8174 67.7809 45.3529C69.4967 45.9801 70.8684 45.9058 70.9906 45.7039L69.8384 44.6828C68.8027 43.9261 67.8421 43.3427 67.1444 43.0801C66.9381 43.197 66.7566 43.3336 66.6065 43.4982Z" fill="#194F9E"/>
<path fill-rule="evenodd" clip-rule="evenodd" d="M13.3602 69.1523C13.3602 69.1523 13.0781 70.6346 13.0781 70.9862C13.0781 70.9862 14.7745 71.2802 17.4221 68.4924C17.4265 68.4636 17.4526 68.3007 17.4622 68.2417L13.6728 67.5957C13.4877 68.429 13.3602 69.1523 13.3602 69.1523Z" fill="#194F9E"/>
<path fill-rule="evenodd" clip-rule="evenodd" d="M26.4757 59.8627L26.3438 60.4811C27.3557 60.7306 28.0699 60.2729 28.3475 60.0133C28.8639 58.3516 29.5653 56.6631 30.2899 55.2099L29.4004 53.6094C28.3413 55.3065 27.1145 57.7917 26.4757 59.8627Z" fill="#194F9E"/>
<path fill-rule="evenodd" clip-rule="evenodd" d="M10.1094 60.9244C12.5158 61.2331 13.794 60.5274 15.0833 59.7335C15.3793 58.576 16.0709 56.4282 16.9704 54.9538C17.4965 54.089 17.9533 53.1598 19.4312 51.9348C18.7822 52.0655 18.2573 52.0379 17.9137 51.8406C17.7421 51.7413 17.6204 51.6054 17.5537 51.4395C16.379 51.796 15.5205 51.993 14.9043 51.9605C13.1404 53.6492 11.9231 56.4316 10.5259 59.8897C10.4057 60.1825 10.148 60.8206 10.1094 60.9244Z" fill="#194F9E"/>
<path fill-rule="evenodd" clip-rule="evenodd" d="M26.7422 52.2137C26.8632 52.3106 27.3678 52.4096 27.9264 52.305C27.8712 52.2763 27.3228 51.9194 27.1669 51.8105C27.0889 51.8726 26.8572 52.117 26.7422 52.2137Z" fill="#194F9E"/>
<path fill-rule="evenodd" clip-rule="evenodd" d="M17.7406 66.5854C18.2034 64.3212 18.8659 62.2876 19.5174 61.384C19.4004 61.3851 18.862 61.384 18.862 61.384C18.862 61.384 18.9001 60.7217 18.9459 60.5039C18.037 60.9511 17.1086 61.2171 16.0813 61.3273C14.9657 62.8567 14.1696 65.5281 13.7422 67.2945L17.7406 66.5854Z" fill="#194F9E"/>
<path fill-rule="evenodd" clip-rule="evenodd" d="M22.4966 60.7402C21.9133 61.2154 21.1059 61.326 20.2283 61.3671C19.5869 61.8672 18.8582 63.9645 18.3281 66.4814L22.2085 65.7936C22.4674 64.5743 22.8864 62.9342 23.4409 61.0591C23.1315 61.08 22.8193 61.0879 22.5118 61.0879L22.4966 60.7402Z" fill="#194F9E"/>
<path fill-rule="evenodd" clip-rule="evenodd" d="M26.5055 52.6024C26.2634 52.5518 26.1834 52.4492 26.1365 52.3285C25.4117 52.4326 24.431 52.4545 24.0161 52.0625C22.1916 53.7231 20.7517 55.7348 19.6508 59.6107C19.5306 60.0344 19.4916 60.5661 19.4531 60.8817C20.7723 60.8771 22.2925 60.8081 22.6733 59.7463C23.5554 56.8776 24.4379 54.3715 26.5055 52.6024Z" fill="#194F9E"/>
<path fill-rule="evenodd" clip-rule="evenodd" d="M28.5151 52.7402C27.8448 52.9004 27.173 52.8059 26.99 52.7983C24.9534 54.4945 24.1396 56.7983 23.2001 59.8485C23.1575 60.0005 23.03 60.5052 23.0487 60.5825C24.1504 60.5726 25.2261 60.3541 25.9702 59.6866C26.7197 57.2603 27.9029 54.7602 29.0943 53.0511L29.0838 53.0327C28.8983 52.9375 28.7102 52.8409 28.5151 52.7402Z" fill="#194F9E"/>
<path fill-rule="evenodd" clip-rule="evenodd" d="M16.3516 44.6794C16.8261 45.1427 18.9828 44.8446 19.4759 44.6876C20.5392 43.8736 21.5645 43.2019 22.3779 42.8125C22.0062 42.7114 21.5824 42.6578 21.1001 42.6562C19.6968 42.8239 17.9735 43.6102 16.3516 44.6794Z" fill="#194F9E"/>
<path fill-rule="evenodd" clip-rule="evenodd" d="M25.2381 50.0957C24.7457 50.6324 24.4303 51.0969 24.2582 51.4512C24.0947 51.7875 24.8205 51.9516 25.0058 51.9799C25.0058 51.9799 26.1174 52.0868 26.4844 51.7618C26.6089 51.6561 26.71 51.5459 26.7689 51.5006C26.2708 51.1161 25.7799 50.5671 25.2381 50.0957Z" fill="#194F9E"/>
<path fill-rule="evenodd" clip-rule="evenodd" d="M39.0781 15.0791L39.7139 16.5135L40.4789 15.8912L39.9102 14.3047L39.0781 15.0791Z" fill="#194F9E"/>
<path fill-rule="evenodd" clip-rule="evenodd" d="M14.5145 51.3574C14.9399 51.643 16.1881 51.3277 17.5066 50.9241C17.7888 49.9166 19.2009 48.2249 20.7605 46.728C20.7427 46.7728 21.117 46.3498 21.2659 46.2049C20.1029 46.4445 19.0281 46.4234 18.7354 45.957C18.7342 45.954 14.4308 49.5471 14.2844 50.738C14.2567 51.0781 14.4199 51.2939 14.5145 51.3574Z" fill="#194F9E"/>
<path fill-rule="evenodd" clip-rule="evenodd" d="M21.4219 46.951C21.4904 47.1299 23.3906 47.1299 24.1753 46.7326C24.2917 45.8896 24.2845 45.1861 24.1492 44.6152C23.7649 44.8929 21.843 46.5479 21.4219 46.951Z" fill="#194F9E"/>
<path fill-rule="evenodd" clip-rule="evenodd" d="M21.339 51.2467C21.2104 51.5921 21.5814 51.8014 21.7779 51.8395C22.0762 51.8973 22.5897 51.9833 23.8396 51.1316C24.0794 50.8033 24.5523 50.2744 24.899 49.7404C24.2864 49.1248 24.142 48.6139 24.0044 48.377C23.0244 49.2044 21.6625 50.5826 21.339 51.2467Z" fill="#194F9E"/>
<path fill-rule="evenodd" clip-rule="evenodd" d="M61.5019 64.6457L63.816 65.0564C63.6473 63.8235 63.3257 62.3129 62.8922 61.0472C62.405 60.9703 61.9418 60.7548 61.6955 60.5898L61.706 60.87C61.3545 60.9451 61.0078 60.9647 61.0078 60.9647C61.0525 61.3812 61.445 63.8024 61.5019 64.6457Z" fill="#194F9E"/>
<path fill-rule="evenodd" clip-rule="evenodd" d="M42.0451 51.5137C41.5839 51.9903 39.8867 53.5529 39.9224 53.5183L41.1487 57.1197L42.0451 51.5137Z" fill="#194F9E"/>
<path fill-rule="evenodd" clip-rule="evenodd" d="M10.0372 59.6693C11.3954 56.3081 12.5986 53.5825 14.3144 51.8206C14.2767 51.8013 14.2349 51.787 14.1995 51.7636C13.9336 51.5855 13.8204 51.3225 13.7733 51.067C12.6387 51.5905 11.8553 51.9062 11.2468 51.673C10.9715 51.5671 10.7548 51.3549 10.5892 51.0273C10.497 51.0726 10.4082 51.1195 10.3213 51.1644C9.71892 51.4773 9.18181 51.7463 8.18323 51.7875C8.18039 51.7919 8.17755 51.7968 8.1747 51.801C6.10566 55.1765 4.98122 58.0175 4.54688 60.9569C6.10485 61.2761 7.85117 61.2743 10.0372 59.6693Z" fill="#194F9E"/>
<path fill-rule="evenodd" clip-rule="evenodd" d="M4.27448 74.4669C4.13768 74.4508 3.98585 74.4032 3.83079 74.3047C3.03069 74.7178 2.14901 75.0553 1.33187 75.2223C1.09033 75.2722 0.402684 75.336 0.390506 75.3371C0.287398 76.6247 0.226102 77.9968 0.226102 79.4835C-0.242749 86.4948 1.73251 93.072 3.64082 98.1698L5.30271 90.8418L5.29743 90.8427C4.13565 86.876 3.8174 81.7866 4.27448 74.4669Z" fill="#194F9E"/>
<path fill-rule="evenodd" clip-rule="evenodd" d="M3.44536 73.9402L3.44212 73.936C3.19897 73.6175 2.95216 73.1462 2.85392 72.9235C2.37289 71.8326 2.47883 70.8066 2.51821 70.4202L2.52023 70.4021C2.55231 70.0835 2.75001 69.7254 2.78897 69.6575L2.79628 69.6443L2.80439 69.6323C2.82753 69.5964 2.85189 69.5625 2.87828 69.5292C2.84378 69.504 2.81008 69.4772 2.77922 69.4477L2.76543 69.4342L2.75285 69.4205C2.57099 69.2232 2.504 68.9677 2.56896 68.7193C2.63836 68.4523 2.84417 68.2431 3.0719 68.0993C3.10641 68.0195 3.15512 67.9451 3.21601 67.8794C3.18231 67.7794 3.16203 67.6742 3.15635 67.5666C3.14336 67.2833 3.23996 67.0206 3.42141 66.8122L3.33495 66.6002L3.1251 66.0888L3.67309 65.887L4.03884 65.7523L4.41107 65.6088L4.95544 65.3994L5.18805 65.9025L5.28424 66.1107C5.57084 66.1431 5.83712 66.2696 6.03887 66.4808C6.11641 66.5622 6.18014 66.6508 6.23048 66.7436C6.32344 66.7526 6.41437 66.7742 6.4992 66.8086C6.76996 66.7655 7.07481 66.7832 7.32366 66.9285C7.46694 67.0127 7.57087 67.1329 7.63744 67.2723C8.2232 65.4892 9.11829 63.4296 10.6543 61.4817C10.3673 61.4636 9.49212 61.327 9.49212 61.327C9.49212 61.327 9.60301 60.7118 9.70242 60.5176C8.35025 61.3575 7.15682 61.6327 6.06364 61.6327C5.48274 61.6327 4.93149 61.5518 4.3989 61.4405L4.39768 61.4436C4.19066 61.8315 3.74982 62.6352 3.73479 62.6266C3.06054 63.999 2.40577 65.5429 1.84842 67.3568C1.79403 67.5356 1.74288 67.7239 1.68929 67.9092C1.12424 69.8753 0.673247 72.1439 0.429688 74.8323C0.532795 74.8311 1.149 74.7496 1.40312 74.684C2.2296 74.47 2.90304 74.2044 3.44536 73.9402Z" fill="#194F9E"/>
<path fill-rule="evenodd" clip-rule="evenodd" d="M24.002 43.1691C25.3533 44.5661 24.3787 47.4631 24.5192 48.2205C24.7648 49.2713 26.1664 50.3733 27.3047 51.2638C27.6668 51.5731 29.1513 52.5276 30.2823 53.046L34.0408 54.7548L37.7274 52.1916V56.5072L37.9346 56.6068L39.9243 53.5174L39.5245 47.5445C38.4971 49.5277 37.06 50.9294 35.3763 51.7125C34.5063 52.117 33.1104 52.3453 33.1104 52.3453C33.1104 52.3453 35.6872 48.5394 35.8257 48.3007C34.7853 48.8718 32.9005 49.5132 32.119 49.7133C31.6753 49.806 31.0213 49.8706 30.3804 49.6687C30.1824 49.6061 29.0421 49.1396 27.9903 48.0355C27.4273 47.4 26.7474 46.3668 26.6179 45.5053C26.3796 43.9163 25.7833 42.8049 24.8367 41.9204C23.9907 41.1318 22.7688 40.9488 22.7688 40.9488C22.0731 40.8053 21.2949 40.7932 20.4375 40.9173C20.5115 41.2525 20.8381 41.7804 21.2072 42.151C22.4636 42.1703 23.3829 42.5287 24.002 43.1691Z" fill="#194F9E"/>
<path fill-rule="evenodd" clip-rule="evenodd" d="M10.0568 50.7232C10.1916 50.6527 10.336 50.5794 10.4875 50.5063C10.8163 48.8663 12.6308 46.7639 14.8464 45.0716C13.8539 45.1986 13.0713 45.0286 12.6263 44.5605C10.4785 46.05 7.8668 48.3722 7.32812 51.1169C7.40972 51.1814 7.67357 51.2829 7.99385 51.29C8.97906 51.2776 9.45846 51.033 10.0568 50.7232Z" fill="#194F9E"/>
<path fill-rule="evenodd" clip-rule="evenodd" d="M15.8454 44.341L16.0033 44.2924C17.5357 43.2774 19.1627 42.5079 20.5745 42.2316C20.2661 41.8592 19.9993 41.4094 19.9132 41.0312C18.2136 41.483 15.571 42.6136 13.0781 44.2657C13.6307 44.7777 14.827 44.6589 15.8454 44.341Z" fill="#194F9E"/>
<path fill-rule="evenodd" clip-rule="evenodd" d="M8.39156 78.5704L6.93264 74.6187C6.90056 74.6137 6.86931 74.6075 6.83805 74.5976C6.65255 74.5546 6.38017 74.4312 5.90603 74.113C5.78101 74.0293 5.67547 73.9542 5.58454 73.8867C5.34097 74.0766 5.04627 74.286 4.82666 74.3851C4.16824 82.8407 5.09254 89.072 5.82525 90.6771C6.57745 92.3274 7.82894 94.4204 7.82894 94.4204L9.02806 89.1233L9.52454 86.9294C8.70575 84.8915 8.43621 82.0946 8.39847 79.5407C8.39847 79.5239 8.39156 78.6183 8.39156 78.5704Z" fill="#194F9E"/>
<path fill-rule="evenodd" clip-rule="evenodd" d="M19.917 95.3877C20.1278 95.084 20.0875 94.9141 20.0875 94.9141C19.0756 95.4576 17.2882 95.8745 15.4312 95.9206C15.4312 95.9206 15.3621 96.1039 15.6006 96.234C15.8395 96.366 17.2525 96.3456 17.9808 96.234C18.709 96.1225 19.7051 95.6921 19.917 95.3877Z" fill="#194F9E"/>
<path fill-rule="evenodd" clip-rule="evenodd" d="M20.2167 94.2427C20.342 93.724 20.072 93.6504 20.072 93.6504C18.1735 93.9976 17.1014 94.0594 15.686 94.0719C15.4209 94.0736 14.9217 94.0029 14.6602 93.862C14.6602 93.862 14.2758 94.4508 14.3996 94.8766C14.5226 95.3034 15.1543 95.4185 15.1543 95.4185C17.3426 95.4106 20.0908 94.7615 20.2167 94.2427Z" fill="#194F9E"/>
<path fill-rule="evenodd" clip-rule="evenodd" d="M18.125 96.7128C18.125 96.7128 18.4202 98.5171 18.8329 99.1696C19.2457 99.8212 21.2027 100.816 21.5596 100.655C21.7346 100.577 21.8872 100.501 22.0009 100.451C22.3062 100.317 22.2456 98.3914 21.8527 97.6893C21.4594 96.9881 20.0711 95.9258 20.0711 95.9258C19.612 96.2737 18.9065 96.4959 18.125 96.7128Z" fill="#194F9E"/>
<path fill-rule="evenodd" clip-rule="evenodd" d="M11.0006 85.573L8.97656 80.082C9.00498 81.1743 9.10159 82.4022 9.23921 83.4538L9.23677 83.4564C9.39224 84.647 9.6378 85.7731 10.0263 86.7422L11.5705 89.614C11.5705 89.614 11.8681 88.5533 11.8481 88.5028C11.6342 87.9468 11.0006 85.573 11.0006 85.573Z" fill="#194F9E"/>
<path fill-rule="evenodd" clip-rule="evenodd" d="M17.977 91.5376C17.977 91.5376 16.2677 90.2246 16.0124 90.2424C15.7567 90.2609 15.3125 91.0825 15.3125 91.0825C15.3125 91.0825 16.8218 91.813 17.2719 91.8077C17.7234 91.8023 17.977 91.5376 17.977 91.5376Z" fill="#194F9E"/>
<path fill-rule="evenodd" clip-rule="evenodd" d="M15.5319 88.4282C15.7178 88.1201 15.9178 87.3261 15.798 87.0102C15.6772 86.6941 14.448 85.0362 14.0246 84.4182C13.6791 83.9124 9.59947 76.8385 8.12515 74.2793C8.04398 74.3124 7.53574 74.5033 7.4375 74.5359C8.46695 77.2758 11.3483 84.957 11.4835 85.4385C11.6483 86.0253 12.1557 88.1458 12.3436 88.4221C12.532 88.6965 13.2875 89.0993 13.7842 89.1409C14.2807 89.1826 15.345 88.7347 15.5319 88.4282Z" fill="#194F9E"/>
<path fill-rule="evenodd" clip-rule="evenodd" d="M19.6327 93.2155C20.0455 93.0499 19.8336 91.914 19.3547 91.8973H18.4263C18.4263 91.8973 17.9838 92.3568 17.2944 92.3568C16.6043 92.3568 14.9478 91.4883 14.9478 91.4883L14.246 91.8592C14.246 91.8592 13.7369 92.5108 13.8871 92.8684C14.0377 93.227 15.2234 93.5714 15.4596 93.5696C16.7817 93.5599 19.2206 93.3811 19.6327 93.2155Z" fill="#194F9E"/>
<path fill-rule="evenodd" clip-rule="evenodd" d="M20.2542 92.6262C20.622 92.2933 20.741 92.179 21.121 91.8984H19.9844C20.223 92.1392 20.262 92.4049 20.2542 92.6262Z" fill="#194F9E"/>
<path fill-rule="evenodd" clip-rule="evenodd" d="M35.6926 22.4932C36.1269 22.4932 36.4808 22.1653 36.4808 21.7634C36.4808 21.3596 36.1269 21.0312 35.6926 21.0312C35.2594 21.0312 34.9062 21.3596 34.9062 21.7634C34.9062 22.1653 35.2594 22.4932 35.6926 22.4932Z" fill="#194F9E"/>
<path fill-rule="evenodd" clip-rule="evenodd" d="M36.2689 14.0806L35.4438 12.2402C35.2376 12.392 35.0431 12.552 34.8709 12.7274C34.7255 12.8757 34.5912 13.0324 34.4688 13.1984L35.2725 14.9425L36.2689 14.0806Z" fill="#194F9E"/>
<path fill-rule="evenodd" clip-rule="evenodd" d="M36.5313 22.7949C36.2995 22.9563 36.013 23.055 35.7007 23.055C35.4986 23.055 35.3066 23.0133 35.1328 22.9405C35.4771 23.4877 35.8546 24.0127 36.2474 24.516C36.2474 24.5104 36.3056 24.5814 36.3928 24.6908C36.3327 24.5191 36.3016 24.3353 36.3085 24.1447C36.3219 23.7629 36.4793 23.418 36.729 23.1482C36.6474 23.0398 36.5809 22.9214 36.5313 22.7949Z" fill="#194F9E"/>
<path fill-rule="evenodd" clip-rule="evenodd" d="M34.3385 21.4941C34.3905 21.2696 34.5046 21.0673 34.663 20.9026L33.7188 19.7344C33.864 20.3404 34.0772 20.9273 34.3385 21.4941Z" fill="#194F9E"/>
<path fill-rule="evenodd" clip-rule="evenodd" d="M34.8495 15.3054L34.1254 13.7344C33.7742 14.3747 33.5657 15.1295 33.4844 15.9956C33.6642 16.0005 33.8436 16.0046 34.0242 16.0178L34.8495 15.3054Z" fill="#194F9E"/>
<path fill-rule="evenodd" clip-rule="evenodd" d="M33.2786 48.6146C33.9099 48.5848 35.0127 48.2458 36.3601 47.4109L37.2068 46.8859C37.2068 46.8859 34.8622 50.8108 34.3199 51.5701C36.5748 50.8991 38.4132 49.0259 39.5422 46.2218L40.0715 45.1421L40.451 52.1878C41.0214 51.6365 41.6506 51.118 42.1686 50.5708L42.8449 46.367L43.2297 43.9707C42.5993 43.1391 41.0429 40.7519 40.9788 40.6504C40.8232 42.9754 40.026 44.6138 38.5537 45.6425L37.9428 46.0693C37.9428 46.0693 38.4222 44.7001 38.2707 42.9611C38.2096 42.2531 38.0933 41.5157 37.9473 40.7708C37.4955 42.9901 36.5899 44.864 34.934 45.3575C34.8053 45.5731 34.5849 45.8749 34.1498 46.3534C34.1481 46.3527 32.6872 47.7413 30.9531 48.1633C30.9531 48.1633 32.0868 48.6708 33.2786 48.6146Z" fill="#194F9E"/>
<path fill-rule="evenodd" clip-rule="evenodd" d="M34.1502 19.4417L35.0837 20.5978C35.266 20.5156 35.4698 20.4692 35.6854 20.4692C35.6956 20.4692 35.0429 19.7914 35.0429 19.7914L37.6965 19.1816L33.4413 16.666C33.4393 16.7589 33.4366 16.8507 33.4378 16.9468L36.1619 18.9714L34.1502 19.4417Z" fill="#194F9E"/>
<path fill-rule="evenodd" clip-rule="evenodd" d="M33.4766 17.6133C33.4851 17.7283 33.4868 17.8385 33.4981 17.9566C33.4981 18.3294 33.5274 18.6966 33.5809 19.0562L34.979 18.7299L33.4766 17.6133Z" fill="#194F9E"/>
<path fill-rule="evenodd" clip-rule="evenodd" d="M36.475 38.1603C36.5886 36.8943 36.1377 34.962 36.1377 34.962L36.6333 35.1919C38.3683 35.9991 39.6225 37.4644 40.4633 38.7867V35.0689L40.8201 35.1788C41.5398 35.4013 42.2637 35.7383 42.9635 36.0631C43.1778 36.1628 43.3944 36.2621 43.6126 36.3603C42.9477 35.6156 40.7776 32.199 40.7776 32.199L40.7962 32.1972C38.1621 31.8319 35.1177 31.1149 34.1344 30.0617C34.0601 29.9821 34.0017 29.9009 33.9505 29.8184C33.6006 30.1556 33.0997 30.3742 32.5781 30.421C32.6492 31.2383 33.0611 32.3628 33.4732 33.1244L33.5016 33.1783V34.4617L33.5791 34.5624C33.5933 34.5802 33.6067 34.5986 33.6204 34.6168C34.2939 35.493 34.8533 36.2625 34.4628 37.1486C34.7998 37.7594 35.5228 39.0765 35.6993 40.5391C36.134 39.9376 36.3877 39.1354 36.475 38.1603Z" fill="#194F9E"/>
<path fill-rule="evenodd" clip-rule="evenodd" d="M40.4651 39.8361C39.7595 38.5396 38.5926 36.8753 36.8869 35.8984C37.058 36.8554 37.0951 37.7116 37.0123 38.4683C36.884 39.6287 36.4691 40.5518 35.7937 41.2271C35.7584 42.5015 35.8258 43.3004 35.2344 44.7161C36.6867 44.0123 37.2681 41.8033 37.6456 39.3955C37.6503 39.3653 37.794 38.0897 37.7986 38.0596C37.7986 38.0596 38.6579 41.2833 38.7889 42.6369C38.8612 43.3826 38.8853 44.1029 38.7984 44.7766C39.9093 43.7023 40.4557 42.0762 40.4651 39.8361Z" fill="#194F9E"/>
<path fill-rule="evenodd" clip-rule="evenodd" d="M32.2823 29.9358C33.0556 29.9358 33.8877 29.4561 33.8895 28.7309L30.3281 27.8203C30.8449 29.0456 31.6504 29.9358 32.2823 29.9358Z" fill="#194F9E"/>
<path fill-rule="evenodd" clip-rule="evenodd" d="M66.0186 46.7321C66.8037 47.1296 68.7035 47.1296 68.7729 46.9506C68.3508 46.5476 66.4296 44.8929 66.045 44.6152C65.9103 45.1857 65.903 45.8891 66.0186 46.7321Z" fill="#194F9E"/>
<path fill-rule="evenodd" clip-rule="evenodd" d="M32.9646 33.2963C32.5421 32.499 32.1049 31.3153 32.0395 30.4102C31.0661 30.2206 30.1096 28.8446 29.6343 27.5914C28.7201 27.2859 27.9452 26.9688 27.3047 26.6387L32.9646 33.7767V33.2963Z" fill="#194F9E"/>
<path fill-rule="evenodd" clip-rule="evenodd" d="M31.4729 32.7597L26.6071 26.6234C26.6071 26.6234 25.4842 26.2419 23.4931 26.9841C21.5405 27.7121 21.2946 29.8014 22.0034 31.3901C22.0963 31.2033 22.193 31.0732 22.3501 30.9227C22.7028 30.5853 23.202 30.3921 23.8787 30.4128C25.1895 30.4499 26.0643 30.8445 26.9102 31.2257C27.3182 31.4102 27.7054 31.583 28.1401 31.7215C28.1401 31.7215 30.6437 32.4581 31.4729 32.7597Z" fill="#194F9E"/>
<path fill-rule="evenodd" clip-rule="evenodd" d="M30.445 32.941C29.7789 32.7592 28.2579 32.2912 28.2579 32.2912C27.904 32.6063 23.0486 32.7722 21.748 32.5956C20.4473 32.4179 19.4658 31.8908 17.9688 31.2402C19.538 33.5436 22.246 34.7224 26.0225 34.7628C26.549 33.3652 28.4057 32.899 30.445 32.941Z" fill="#194F9E"/>
<path fill-rule="evenodd" clip-rule="evenodd" d="M41.4074 29.0262C41.3331 29.0031 41.2519 28.9768 41.1686 28.9487L41.1654 28.9484C38.1538 27.9593 29.7608 24.467 29.0325 24.4122C28.284 24.3555 27.5519 25.4733 27.4453 26.1438C29.5609 27.2627 32.6458 28.1484 38.2 29.0356C39.3935 29.1824 40.5784 29.2431 41.4074 29.0262Z" fill="#194F9E"/>
<path fill-rule="evenodd" clip-rule="evenodd" d="M52.2533 78.0494L49.1982 76.5234L48.8846 78.5905L48.7969 79.1547C53.4927 79.9437 55.9641 82.1347 56.2024 84.0365C56.6955 84.0491 57.1474 84.0906 57.5581 84.1652C57.5241 83.3438 56.4277 80.8022 55.958 79.9158L52.2533 78.0494Z" fill="#194F9E"/>
<path fill-rule="evenodd" clip-rule="evenodd" d="M76.9167 89.5508C76.9695 88.9542 75.4888 87.557 75.4888 87.557L74.1406 87.2539C74.1406 87.2539 74.7181 88.0803 74.7462 88.9568C74.7746 89.8324 74.4434 90.7186 74.4434 90.7186C75.0893 90.6513 76.864 90.1466 76.9167 89.5508Z" fill="#194F9E"/>
<path fill-rule="evenodd" clip-rule="evenodd" d="M75.8742 87.3972C75.8742 87.3972 77.584 88.9399 77.4457 89.581C77.3067 90.2211 76.6609 90.6549 75.567 90.9771C74.7895 91.2056 73.7958 91.2577 73.7958 91.2577C73.7958 91.2577 74.2123 89.9917 74.2481 89.001C74.2785 88.1785 73.571 87.17 73.2531 86.8284C72.9353 86.4866 72.0167 86.3376 71.2368 86.3942C71.2368 86.3942 72.2638 87.5703 72.455 88.3326C72.6993 89.3083 72.518 90.2892 71.7601 90.5424C71.0026 90.7965 68.5776 88.622 67.8993 88.7062C67.6561 88.7373 67.4799 88.8461 67.3517 88.9727C67.3614 88.9727 67.3712 88.9727 67.3808 88.9727C67.3118 89.0285 67.2542 89.0905 67.2038 89.1569C67.1219 89.2834 67.0788 89.4003 67.0618 89.4561C67.0585 89.4676 67.0537 89.4773 67.0516 89.4889C65.4511 89.5482 63.7855 89.55 63.5167 89.3304C63.026 88.9311 63.6787 88.0086 64.0815 87.5924C64.4341 87.2273 64.8698 86.9427 64.8698 86.9427C64.338 86.7017 64.0668 86.4635 63.742 85.8926C63.742 85.8926 63.6147 86.9546 62.5364 87.627C61.2834 88.4097 60.4037 88.2512 60.4037 88.2512C60.4037 88.2512 59.8731 89.7067 59.8062 90.1308C59.7392 90.5575 60.0395 91.1232 60.5535 91.1772C61.0666 91.2304 64.722 90.4584 65.7672 90.5699C66.7055 90.669 72.8012 93.1001 74.2181 93.0665C74.8808 93.0506 76.6362 92.4839 77.2166 92.0848C77.7959 91.6854 78.9723 90.6806 78.9232 89.8704C78.8736 89.0595 77.9651 88.021 77.9651 88.021C77.7065 87.5713 76.5277 87.3417 75.8742 87.3972Z" fill="#194F9E"/>
<path fill-rule="evenodd" clip-rule="evenodd" d="M61.2922 84.2628C61.3112 83.3285 60.8081 82.3745 60.5699 82.1111L56.7266 80.2852C57.2923 81.5021 58.0987 83.5463 58.0987 84.2897C58.0987 84.2897 59.1561 84.5477 59.7913 85.2445C60.1803 85.6711 60.4059 86.2116 60.4753 86.8531C60.8809 86.2256 61.2722 85.2908 61.2922 84.2628Z" fill="#194F9E"/>
<path fill-rule="evenodd" clip-rule="evenodd" d="M57.5685 94.0881C56.198 92.5219 54.8207 91.6561 53.4765 90.4999C52.0088 89.2365 50.618 88.0457 49.3101 87.0059L49.2188 88.213C52.9176 90.383 56.625 95.8588 56.7489 103.708C57.7202 102.101 58.8565 100.357 58.8803 98.182C58.8942 96.9398 58.3466 94.9539 57.5685 94.0881Z" fill="#194F9E"/>
<path fill-rule="evenodd" clip-rule="evenodd" d="M60.6692 95.4393C59.9057 95.4863 59.2577 95.4119 58.5839 94.893C60.6136 99.1799 58.3906 102.195 57.1562 104.024C58.1057 103.885 59.0524 103.5 59.6433 102.898C60.6891 101.833 61.1051 100.123 60.8798 97.812L60.8624 97.6402L61.0296 97.5641C62.0623 97.1551 63.4068 96.1946 63.4465 94.9622C63.4599 94.5513 63.4242 94.1742 63.2631 93.6367C62.9367 94.893 61.2542 95.4048 60.6692 95.4393Z" fill="#194F9E"/>
<path fill-rule="evenodd" clip-rule="evenodd" d="M49.3516 86.3785C50.7543 87.4784 52.2531 88.7642 53.8387 90.1276C55.371 91.4468 57.0354 92.8103 58.6178 94.3809C60.9254 96.2587 63.0367 93.792 62.9745 93.2175C62.6888 93.4663 61.9708 93.7779 61.1487 93.6832L61.0833 93.6753C59.8298 93.3848 58.7842 92.3737 57.8614 91.4822C57.3346 90.9723 56.8357 90.4906 56.3473 90.179C53.496 90.179 49.8521 85.3793 49.5381 83.9199L49.3516 86.3785Z" fill="#194F9E"/>
<path fill-rule="evenodd" clip-rule="evenodd" d="M48.7153 79.6973L48.4855 81.2389L46.2964 95.6512C48.6771 100.305 49.9384 105.93 45.4219 112.323V113.185H45.4252V114.055C45.4512 114.029 45.4795 114.001 45.5079 113.971C45.5473 113.93 45.5932 113.885 45.6412 113.838C45.7332 113.744 45.8376 113.64 45.9489 113.527C46.3292 113.145 46.7876 112.679 47.0989 112.292C48.2314 110.884 48.4941 110.687 48.7676 110.229C50.5964 105.524 51.9518 99.9204 48.2883 93.9523L48.2476 93.8859L49.2325 80.8713L49.6915 82.021C50.0791 82.8573 50.9142 84.2633 51.8337 84.523C51.9473 84.5547 52.0605 84.5754 52.1734 84.5909L52.1754 84.5959C52.8359 84.6686 53.4927 84.4898 54.1795 84.3188C54.6598 84.1995 55.1545 84.0814 55.6559 84.0464C55.3417 81.7181 52.0605 80.2872 48.7153 79.6973Z" fill="#194F9E"/>
<path fill-rule="evenodd" clip-rule="evenodd" d="M89.7872 75.3384C89.7751 75.3375 89.0875 75.2735 88.8454 75.2236C87.8647 75.0228 86.7894 74.5791 85.8764 74.0508C86.3721 81.5965 86.0641 86.8025 84.8799 90.844L84.875 90.8431L86.5369 98.1712C88.4446 93.0734 90.4201 86.4961 89.9512 79.4851C89.9512 77.9979 89.89 76.6258 89.7872 75.3384Z" fill="#194F9E"/>
<path fill-rule="evenodd" clip-rule="evenodd" d="M42.7891 6.6499H47.3826L45.6046 3.6548L48.7198 5.36991V1.17404L45.6009 2.90348L47.3831 -0.0976562H42.8077L44.5716 2.89971L41.4609 1.17404V5.36274L44.5772 3.65669L42.7891 6.6499Z" fill="#194F9E"/>
<path fill-rule="evenodd" clip-rule="evenodd" d="M79.331 89.3163C79.4861 89.0914 79.6371 88.7975 79.7569 88.5213L78.7344 88.291C78.9661 88.5088 79.331 89.3163 79.331 89.3163Z" fill="#194F9E"/>
<path fill-rule="evenodd" clip-rule="evenodd" d="M68.5146 82.959C68.0207 83.6372 67.6752 84.4156 67.5156 85.2534L70.3962 85.9149C71.4666 85.7888 72.6507 85.9979 73.271 86.294C73.8254 86.5583 73.8766 86.6847 73.8766 86.6847L75.1488 86.9552C76.3852 86.7783 77.8585 87.2066 78.3792 87.6895L79.9457 88.0499C80.1295 87.4945 80.2287 86.9043 80.2287 86.2934C80.2287 86.047 80.2108 85.8055 80.1795 85.5676L68.5146 82.959Z" fill="#194F9E"/>
<path fill-rule="evenodd" clip-rule="evenodd" d="M81.1843 79.7337C81.1895 79.3873 81.0426 73.8779 81.0129 72.3548C79.8052 72.1258 78.9654 71.7759 77.5714 70.5488C77.5686 70.545 77.6453 71.1119 77.6636 71.3786L77.3059 71.4362C77.4046 72.4216 77.4254 73.2896 77.4745 74.3364C77.4846 74.5487 77.4899 74.7685 77.4919 74.9918L77.802 75.0435L78.0018 75.0768L77.8734 75.2231L77.4115 75.7526L78.0894 75.5159L78.2875 75.4466L78.2497 75.6393L77.7111 78.4156L77.6737 78.6085L77.5151 78.4802L77.3429 78.342C77.2548 79.351 77.1497 80.1753 77.0938 80.5272C78.9098 81.4202 80.2538 83.0311 80.6854 84.9545C80.7909 84.4719 80.873 83.968 80.9403 83.4541C81.0974 82.25 81.1631 80.9806 81.1843 79.7337Z" fill="#194F9E"/>
<path fill-rule="evenodd" clip-rule="evenodd" d="M85.2951 73.6771C84.8294 73.3398 84.5486 73.1726 83.7322 72.2383C83.3842 72.3688 82.3646 72.4383 81.6092 72.3821C81.6288 73.4508 81.7301 78.193 81.7301 78.2076C81.7407 80.0979 81.6948 82.1414 81.405 84.0048C81.2706 84.8699 81.0843 85.6968 80.8262 86.4501C80.8188 86.7444 80.7901 87.0349 80.7422 87.3176L81.0262 88.5739L82.3485 94.4172C82.3485 94.4172 83.6007 92.3242 84.3526 90.6739C85.1055 89.0255 86.0627 82.4916 85.2951 73.6771Z" fill="#194F9E"/>
<path fill-rule="evenodd" clip-rule="evenodd" d="M48.8832 92.625L48.7969 93.768C51.9452 98.9464 51.4403 103.833 50.0808 108.12C54.4214 105.209 51.2462 96.8799 48.8832 92.625Z" fill="#194F9E"/>
<path fill-rule="evenodd" clip-rule="evenodd" d="M31.5995 94.893C30.9257 95.4119 30.2774 95.4863 29.5133 95.4393C28.9289 95.4048 27.2462 94.893 26.9199 93.6367C26.7587 94.1742 26.7238 94.5513 26.7369 94.9622C26.7766 96.1946 28.1211 97.1551 29.1533 97.5641L29.3202 97.6402L29.3031 97.812C29.0778 100.123 29.4939 101.833 30.5404 102.898C31.131 103.5 32.0772 103.886 33.0267 104.024C31.7923 102.195 29.5694 99.1799 31.5995 94.893Z" fill="#194F9E"/>
<path fill-rule="evenodd" clip-rule="evenodd" d="M40.9748 88.2135L40.883 87.0059C39.5751 88.0461 38.1848 89.2369 36.717 90.5003C35.3728 91.6566 33.9957 92.5224 32.6248 94.0886C31.8465 94.9544 31.2986 96.9394 31.3128 98.1824C31.3375 100.358 32.4733 102.101 33.4444 103.709C33.5677 95.8583 37.2764 90.3834 40.9748 88.2135Z" fill="#194F9E"/>
<path fill-rule="evenodd" clip-rule="evenodd" d="M41.1494 90.5726L41.0147 88.793C37.4713 91.0268 33.9895 96.5707 33.9688 104.226L33.9762 104.243C34.6842 105.996 35.5178 107.456 36.7986 108.498C34.3045 99.4649 37.1993 92.6965 41.1494 90.5726Z" fill="#194F9E"/>
<path fill-rule="evenodd" clip-rule="evenodd" d="M41.3316 79.1557L41.205 78.3463L40.9467 76.6973L38.3517 77.9301L34.1697 79.9169C33.7003 80.8032 32.6048 83.3448 32.5703 84.1664C32.9802 84.0916 33.4332 84.0498 33.9261 84.0377C34.1648 82.1357 36.6353 79.9444 41.3316 79.1557Z" fill="#194F9E"/>
<path fill-rule="evenodd" clip-rule="evenodd" d="M29.5511 82.1111C29.3125 82.3745 28.8103 83.3285 28.8286 84.2628C28.8484 85.2911 29.2406 86.2255 29.6449 86.8531C29.7147 86.2116 29.9403 85.6711 30.3293 85.2443C30.9642 84.5481 32.0219 84.2897 32.0219 84.2897C32.0219 83.5463 32.8283 81.5021 33.3937 80.2852L29.5511 82.1111Z" fill="#194F9E"/>
<path fill-rule="evenodd" clip-rule="evenodd" d="M41.2298 91.6722L41.1893 91.1348C37.434 93.3003 34.8282 100.102 37.5005 108.997C38.389 109.547 39.4628 109.936 40.8068 110.124C40.6499 109.71 40.4959 109.29 40.3494 108.862C34.5502 105.903 38.7934 95.898 41.2298 91.6722Z" fill="#194F9E"/>
<path fill-rule="evenodd" clip-rule="evenodd" d="M31.5602 94.3809C33.1439 92.8104 34.8069 91.447 36.3393 90.1278C37.9248 88.7643 39.4239 87.4784 40.827 86.3785L40.6405 83.9199C40.3272 85.3796 36.6827 90.1791 33.8306 90.1791C33.3431 90.4907 32.8441 90.9732 32.3169 91.4824C31.3942 92.3748 30.3481 93.385 29.0954 93.6753L29.0296 93.6841C28.208 93.778 27.4903 93.4664 27.2045 93.2176C27.1424 93.7922 29.2533 96.2588 31.5602 94.3809Z" fill="#194F9E"/>
<path fill-rule="evenodd" clip-rule="evenodd" d="M48.1658 78.5658L48.5701 75.9079C47.4859 76.2881 46.3124 76.4968 45.0876 76.4968C43.8467 76.4968 42.6585 76.282 41.5625 75.8926L41.9449 78.3352L42.3755 81.0831L45.1193 98.5983L47.8131 80.8853L48.1658 78.5658Z" fill="#194F9E"/>
<path fill-rule="evenodd" clip-rule="evenodd" d="M48.9942 91.1328L48.9531 91.6701C51.3891 95.8968 55.6323 105.902 49.8336 108.861C49.6866 109.288 49.5335 109.709 49.3757 110.122C50.7197 109.935 51.7938 109.545 52.6828 108.995C55.3547 100.102 52.7493 93.2993 48.9942 91.1328Z" fill="#194F9E"/>
<path fill-rule="evenodd" clip-rule="evenodd" d="M46.1562 96.5625L45.4219 101.399V111.374C49.0368 105.784 48.1596 100.771 46.1562 96.5625Z" fill="#194F9E"/>
<path fill-rule="evenodd" clip-rule="evenodd" d="M27.5789 87.6272C26.5004 86.9544 26.3733 85.8926 26.3733 85.8926C26.0478 86.4639 25.777 86.7017 25.245 86.9427C25.245 86.9427 25.6803 87.2277 26.0336 87.5927C26.4362 88.0089 27.0889 88.9314 26.5986 89.3307C26.1079 89.7309 20.9668 89.3934 20.0587 89.3235C19.151 89.2536 16.5497 88.8012 16.1324 88.8348C15.7152 88.8677 14.7125 89.2775 14.2144 89.6555C13.7151 90.0337 13.6209 90.7684 13.7439 91.1041C13.8661 91.4395 14.0224 91.4536 14.2859 91.3634C14.5502 91.2722 14.7418 91.0287 14.7418 91.0287C14.7418 91.0287 15.4086 89.8184 15.8897 89.73C16.5031 89.6175 18.1723 91.0943 18.7044 91.3164C19.2366 91.5395 21.5254 91.5414 22.0818 91.3971C22.6388 91.2518 23.4096 90.6693 24.3472 90.5701C25.3931 90.4585 29.0489 91.2307 29.5619 91.1766C30.0751 91.1235 30.3759 90.5578 30.3089 90.1319C30.2419 89.7061 29.7122 88.2515 29.7122 88.2515C29.7122 88.2515 28.8324 88.4098 27.5789 87.6272Z" fill="#194F9E"/>
<path fill-rule="evenodd" clip-rule="evenodd" d="M44.76 111.386V101.095L44.0432 96.5234C42.0252 100.743 41.1252 105.775 44.76 111.386Z" fill="#194F9E"/>
<path fill-rule="evenodd" clip-rule="evenodd" d="M43.9133 95.6211L41.7026 81.5158L41.418 79.6973C38.0718 80.2867 34.7911 81.7181 34.4766 84.0464C34.9778 84.0816 35.4727 84.1992 35.9533 84.3185C36.6625 84.4959 37.3399 84.683 38.0224 84.5909C38.1356 84.5756 38.2489 84.5547 38.3626 84.523C39.2827 84.2633 40.1162 82.8573 40.505 82.021L40.9637 80.871L41.9488 93.8857L41.9075 93.9521C38.2453 99.9193 39.5999 105.525 41.4285 110.229C41.7026 110.687 41.9652 110.884 43.0978 112.292C43.5187 112.815 44.2059 113.48 44.6058 113.889C44.635 113.918 44.6635 113.945 44.6882 113.971C44.717 114.002 44.745 114.029 44.771 114.055V113.185V112.334C40.2367 105.922 41.5199 100.282 43.9133 95.6211Z" fill="#194F9E"/>
<path fill-rule="evenodd" clip-rule="evenodd" d="M49.1656 88.793L49.0312 90.5726C52.9803 92.6956 55.8757 99.4649 53.3813 108.499C54.662 107.456 55.4966 105.996 56.2041 104.243L56.2105 104.226C56.1908 96.5708 52.709 91.0277 49.1656 88.793Z" fill="#194F9E"/>
<path fill-rule="evenodd" clip-rule="evenodd" d="M40.1073 108.12C38.7478 103.833 38.2424 98.9464 41.3917 93.768L41.3052 92.625C38.9423 96.8799 35.7667 105.209 40.1073 108.12Z" fill="#194F9E"/>
<path fill-rule="evenodd" clip-rule="evenodd" d="M33.143 34.856L33.0184 34.6949L32.1463 33.5941C29.7907 33.2436 26.9358 33.4263 26.4897 35.0836C26.1894 36.204 26.2539 37.2655 26.6891 38.3111C27.5024 36.6141 28.4564 35.6451 30.4407 35.6425H30.4488C31.8261 35.6425 33.1076 36.0372 34.0416 36.7353C34.1428 36.2167 33.7973 35.7097 33.19 34.9179C33.1741 34.8968 33.1592 34.8775 33.143 34.856Z" fill="#194F9E"/>
<path fill-rule="evenodd" clip-rule="evenodd" d="M59.843 27.8203C58.8107 28.1359 57.6248 28.4388 56.2812 28.7312C56.2832 29.4566 57.1154 29.9358 57.888 29.9358C58.52 29.9358 59.3254 29.0456 59.843 27.8203Z" fill="#194F9E"/>
<path fill-rule="evenodd" clip-rule="evenodd" d="M58.0425 33.5939L57.1698 34.6946L57.0455 34.8558C57.0293 34.877 57.015 34.8961 56.9993 34.9162C57 34.9162 57.0012 34.9169 57.0017 34.9182C56.3944 35.7095 56.0497 36.2166 56.1501 36.7355C57.0584 36.0559 58.2969 35.6671 59.6312 35.6464C59.6674 35.6459 59.7032 35.6426 59.7394 35.6426H59.7414H59.7429H59.7511C61.7328 35.6459 62.686 36.6151 63.4986 38.311C63.9343 37.2657 63.9988 36.2041 63.698 35.0834C63.2527 33.4264 60.3973 33.2437 58.0425 33.5939Z" fill="#194F9E"/>
<path fill-rule="evenodd" clip-rule="evenodd" d="M56.4723 34.7297L56.4698 34.7274C56.5112 34.6731 56.5537 34.6184 56.5957 34.5632L56.6732 34.4629V33.1788L56.7011 33.1252C57.1136 32.3636 57.5251 31.2391 57.5971 30.4217C57.0795 30.375 56.583 30.1607 56.2335 29.8281C56.1876 29.9059 56.1304 29.9833 56.0561 30.0625C55.0722 31.1165 52.0235 31.8335 49.3874 32.1995L49.3977 32.1998C49.3977 32.1998 47.2274 35.6164 46.5625 36.3611C46.7805 36.2629 46.9969 36.1633 47.2113 36.0636C47.9114 35.7388 48.6349 35.4021 49.3546 35.1791L49.711 35.0697V38.7878C50.5516 37.4652 51.806 35.9999 53.5413 35.1928L54.0374 34.963L53.9283 35.4675C53.7058 36.4983 53.694 37.4421 53.7033 38.1611C53.7395 39.1453 54.0439 39.9384 54.4795 40.5399C54.6547 39.0773 55.379 37.7599 55.7152 37.1494C55.3416 36.3014 55.8386 35.5591 56.4723 34.7297Z" fill="#194F9E"/>
<path fill-rule="evenodd" clip-rule="evenodd" d="M53.2056 38.6987C53.195 38.7048 53.0584 37.3932 53.2974 35.8984C51.5909 36.875 50.4241 38.5391 49.7188 39.8361C49.7276 42.0759 50.274 43.7021 51.3854 44.7761C51.2974 44.0946 51.3891 42.9327 51.4719 42.195C51.7012 40.6036 52.1379 38.9003 52.3881 38.0591C52.393 38.0894 52.5367 39.3653 52.5415 39.3955C52.9191 41.8029 53.534 44.2483 55.0432 44.772C54.4855 43.4547 54.4291 42.5015 54.3942 41.2271C53.7536 40.5867 53.2583 39.444 53.2056 38.6987Z" fill="#194F9E"/>
<path fill-rule="evenodd" clip-rule="evenodd" d="M48.1406 51.5137L49.036 57.1197L50.2977 53.5183C49.7882 53.0401 48.6018 51.9903 48.1406 51.5137Z" fill="#194F9E"/>
<path fill-rule="evenodd" clip-rule="evenodd" d="M59.7344 32.941C61.7742 32.8992 63.6311 33.3652 64.1566 34.763C67.9338 34.7226 70.6419 33.5436 72.2104 31.2402C70.7138 31.8908 69.7326 32.4181 68.4311 32.5958C67.131 32.7724 62.2756 32.6063 61.9212 32.2912C61.9212 32.2912 60.4005 32.7592 59.7344 32.941Z" fill="#194F9E"/>
<path fill-rule="evenodd" clip-rule="evenodd" d="M52.2401 40.7709C52.094 41.5154 51.9786 42.2187 51.9202 42.9263C51.7761 45.0978 52.2401 46.0693 52.2401 46.0693L51.6295 45.6425C50.1577 44.6138 49.3604 42.9754 49.205 40.6504C49.14 40.7519 47.5731 43.1493 46.9531 43.9713L47.2524 45.8324L48.0151 50.5705C48.5335 51.1177 49.1976 51.6366 49.7668 52.1879L50.1121 45.1421L50.6411 46.2218C51.7696 49.0256 53.6079 50.8991 55.8637 51.5701C55.3214 50.8105 52.9761 46.8856 52.9761 46.8856L53.8236 47.4109C55.1704 48.246 56.2738 48.5845 56.9045 48.6146C58.096 48.6708 59.2306 48.163 59.2306 48.163C57.5257 47.8335 56.511 46.9312 55.7843 46.0494C55.675 45.9176 55.4328 45.5127 55.352 45.4048C53.3718 45.0025 52.6912 42.9901 52.2401 40.7709Z" fill="#194F9E"/>
<path fill-rule="evenodd" clip-rule="evenodd" d="M57.0754 52.3492C57.0754 52.3492 55.6795 52.1209 54.81 51.7164C53.1265 50.9333 51.6887 49.5314 50.6621 47.5484L50.2969 53.5212L52.2522 56.6106L52.4592 56.5106V52.1955L56.1455 54.7585L59.9035 53.0499C61.0349 52.531 62.5195 51.577 62.8815 51.2672C64.0202 50.3771 65.421 49.2751 65.6666 48.2242C65.8071 47.4669 64.8328 44.5698 66.1839 43.1729C66.8032 42.5325 67.7232 42.174 68.9794 42.1548C69.348 41.7838 69.6743 41.2562 69.7483 40.9212C68.8909 40.7973 68.1137 40.809 67.4178 40.9525C67.4178 40.9525 66.1951 41.1355 65.3499 41.9241C64.4025 42.8084 63.8071 43.9205 63.5684 45.5092C63.4384 46.3705 62.7593 47.4038 62.1959 48.0394C61.1445 49.1435 60.0042 49.61 59.8062 49.6724C59.1648 49.8748 58.5105 49.8098 58.0668 49.717C57.2858 49.5166 55.4009 48.8755 54.3606 48.3046C54.4985 48.5431 57.0754 52.3492 57.0754 52.3492Z" fill="#194F9E"/>
<path fill-rule="evenodd" clip-rule="evenodd" d="M55.8462 21.4852C56.1052 20.9237 56.3159 20.3429 56.4599 19.7422L55.5234 20.9006C55.6806 21.0647 55.7934 21.2645 55.8462 21.4852Z" fill="#194F9E"/>
<path fill-rule="evenodd" clip-rule="evenodd" d="M54.4895 21.0312C54.0555 21.0312 53.7031 21.3596 53.7031 21.7634C53.7031 22.1653 54.0555 22.4932 54.4895 22.4932C54.9233 22.4932 55.2765 22.1653 55.2765 21.7634C55.2765 21.3596 54.9233 21.0312 54.4895 21.0312Z" fill="#194F9E"/>
<path fill-rule="evenodd" clip-rule="evenodd" d="M56.5958 19.0577C56.6495 18.6985 56.6791 18.3317 56.6791 17.9592C56.6901 17.8421 56.6924 17.7331 56.7006 17.6191L55.2031 18.7324L56.5958 19.0577Z" fill="#194F9E"/>
<path fill-rule="evenodd" clip-rule="evenodd" d="M51.9613 29.0258C57.5166 28.1383 60.6085 27.2624 62.7243 26.1436C62.6184 25.4731 61.526 24.4187 61.051 24.4278C60.5754 24.4371 51.5254 28.1574 48.75 29.0258C49.6013 29.2225 50.6726 29.2292 51.9613 29.0258Z" fill="#194F9E"/>
<path fill-rule="evenodd" clip-rule="evenodd" d="M58.1439 30.4104C58.0785 31.3153 57.6413 32.499 57.2188 33.2964V33.7767L62.8794 26.6387C62.2382 26.9685 61.4628 27.2859 60.5498 27.5914C60.0733 28.8446 59.1177 30.2209 58.1439 30.4104Z" fill="#194F9E"/>
<path fill-rule="evenodd" clip-rule="evenodd" d="M53.6496 22.7949C53.6026 22.9171 53.5392 23.0326 53.4609 23.1378C53.8064 23.4326 54.0252 23.853 54.0252 24.3231C54.0252 24.347 54.0218 24.3715 54.0211 24.3953C54.3439 23.9752 54.6543 23.5405 54.9446 23.0912C54.9771 23.0454 55.01 22.995 55.0436 22.9433C54.872 23.0141 54.6823 23.0545 54.4819 23.0545C54.1696 23.0545 53.8813 22.9576 53.6496 22.7949Z" fill="#194F9E"/>
<path fill-rule="evenodd" clip-rule="evenodd" d="M62.0362 31.7222C62.47 31.5838 62.8578 31.4109 63.2658 31.2264C64.1117 30.8449 64.9865 30.4505 66.2965 30.4135C66.974 30.3924 67.4793 30.5476 67.8821 30.8675C68.0392 30.9928 68.1142 31.0765 68.2071 31.2633C68.7499 29.3361 68.514 27.5697 66.6832 26.9848C64.8521 26.4003 63.5689 26.6242 63.5689 26.6242L58.7031 32.7604C59.5328 32.4588 62.0362 31.7222 62.0362 31.7222Z" fill="#194F9E"/>
<path fill-rule="evenodd" clip-rule="evenodd" d="M66.8499 87.2311C66.841 87.2095 66.8346 87.1863 66.824 87.1654L66.8809 87.1863C66.8369 86.8949 66.8127 86.5971 66.8127 86.2942C66.8127 85.9624 66.8606 85.4846 66.9574 85.0111L66.9278 84.8175C66.41 84.5602 66.028 84.38 65.7218 84.0847C64.5049 82.945 63.9138 81.5454 63.1405 80.2899C62.1521 78.6831 61.2112 77.1646 59.4603 75.9047C59.4527 75.9016 59.4456 75.8986 59.4389 75.8955C58.7484 75.6273 58.0595 75.3888 57.3828 75.1719L57.8775 76.2081L58.2929 76.9536C60.1765 78.3782 63.1691 81.1084 64.187 85.5872C64.3583 86.3402 66.019 86.9636 66.8499 87.2311Z" fill="#194F9E"/>
<path fill-rule="evenodd" clip-rule="evenodd" d="M59.8906 55.2098C60.6152 56.6629 61.3167 58.3516 61.8326 60.0131C62.1112 60.2727 62.8243 60.7306 63.8367 60.4814L63.7048 59.8627C63.0658 57.7917 61.839 55.3063 60.7796 53.6094L59.8906 55.2098Z" fill="#194F9E"/>
<path fill-rule="evenodd" clip-rule="evenodd" d="M55.2327 19.8432C55.2327 19.8432 54.4764 20.4696 54.4861 20.4696C54.7026 20.4696 54.9059 20.5167 55.0887 20.5987L56.0222 19.4424L54.0105 18.9721L56.7299 16.9511V16.9476C56.7307 16.8529 56.7282 16.7616 56.7261 16.6699L52.4375 19.2174L55.2327 19.8432Z" fill="#194F9E"/>
<path fill-rule="evenodd" clip-rule="evenodd" d="M61.0965 53.0327L61.0859 53.0511C62.2773 54.7602 63.4601 57.2598 64.2095 59.6862C64.954 60.3538 66.0294 60.5722 67.1315 60.5825C67.1496 60.5052 67.0218 60.0005 66.98 59.8481C66.0407 56.7979 65.2259 54.4942 63.1903 52.7978C63.0075 52.8057 62.335 52.9001 61.6651 52.7402C61.4699 52.8406 61.2812 52.9371 61.0965 53.0327Z" fill="#194F9E"/>
<path fill-rule="evenodd" clip-rule="evenodd" d="M59.8684 81.0184L57.0914 76.3575C55.6488 73.7353 54.1885 70.9859 54.1728 71.0198C53.803 71.7847 53.3227 72.4938 52.7532 73.1311C51.7684 74.2337 50.5144 75.1225 49.0938 75.7093L52.7625 77.5413L59.8684 81.0184Z" fill="#194F9E"/>
<path fill-rule="evenodd" clip-rule="evenodd" d="M37.5494 12.9683L36.8889 11.4766C36.5292 11.6113 36.1927 11.7623 35.8906 11.9384L36.6867 13.7136L37.5494 12.9683Z" fill="#194F9E"/>
<path fill-rule="evenodd" clip-rule="evenodd" d="M66.3411 51.1313C67.5909 51.9833 68.104 51.8973 68.4029 51.8392C68.5993 51.8011 68.9708 51.5918 68.8417 51.2464C68.518 50.5826 67.1566 49.2041 66.1759 48.377C66.0386 48.6135 65.8942 49.1248 65.2812 49.7404C65.628 50.2744 66.1009 50.8033 66.3411 51.1313Z" fill="#194F9E"/>
<path fill-rule="evenodd" clip-rule="evenodd" d="M63.4219 51.5006C63.48 51.5459 63.5814 51.6561 63.7056 51.7618C64.0726 52.0866 65.184 51.9799 65.184 51.9799C65.3703 51.9516 66.0966 51.7878 65.9326 51.4512C65.76 51.0972 65.445 50.6324 64.9531 50.0957C64.4104 50.5671 63.9196 51.1161 63.4219 51.5006Z" fill="#194F9E"/>
<path fill-rule="evenodd" clip-rule="evenodd" d="M73.8191 80.3379C71.8195 80.3379 70.0338 81.19 68.8594 82.5244L80.0802 85.0335C79.4583 82.3496 76.8921 80.3379 73.8191 80.3379Z" fill="#194F9E"/>
<path fill-rule="evenodd" clip-rule="evenodd" d="M81.9988 51.7875C80.9998 51.7458 80.4631 51.4773 79.86 51.1644C79.7739 51.1191 79.685 51.0726 79.5927 51.0273C79.4265 51.3549 79.2105 51.5669 78.9353 51.6727C78.3266 51.9062 77.5432 51.59 76.4083 51.067C76.3611 51.3221 76.2479 51.5855 75.9824 51.7636C75.9468 51.787 75.9049 51.8013 75.8672 51.8206C77.5834 53.5825 78.7867 56.3078 80.1445 59.6693C82.3309 61.2743 84.0772 61.2758 85.6343 60.9569C85.2003 58.0175 84.0764 55.176 82.0073 51.801C82.0041 51.7968 82.0017 51.7919 81.9988 51.7875Z" fill="#194F9E"/>
<path fill-rule="evenodd" clip-rule="evenodd" d="M80.3326 71.7323C80.5238 71.7912 81.0827 71.8939 81.2682 71.9132C81.4671 71.9331 82.8136 72.0679 83.198 71.8656C83.1652 71.6856 83.0097 71.0455 82.9817 70.9293C81.4939 64.878 80.2838 63.5916 78.9004 61.4984C77.3233 61.4829 76.2416 61.0044 75.2766 60.4414C75.3538 60.701 75.4501 61.3949 75.4501 61.3949C75.4501 61.3949 74.8744 61.3931 74.7578 61.3893C76.0723 63.5893 76.9962 66.5667 77.4662 69.7511C78.7073 70.9007 79.5597 71.4935 80.3326 71.7323Z" fill="#194F9E"/>
<path fill-rule="evenodd" clip-rule="evenodd" d="M75.3281 45.0719C77.5437 46.7639 79.3574 48.8663 79.6866 50.5063C79.8376 50.5794 79.9813 50.6527 80.1178 50.7237C80.7156 51.0335 81.1954 51.2779 82.1806 51.29C82.5002 51.2832 82.7644 51.1814 82.8463 51.1172C82.3077 48.3723 79.6951 46.0505 77.5482 44.5605C77.103 45.0289 76.3203 45.1991 75.3281 45.0719Z" fill="#194F9E"/>
<path fill-rule="evenodd" clip-rule="evenodd" d="M74.1797 44.2924L74.3377 44.341C75.357 44.6587 76.5525 44.7773 77.1058 44.2657C74.6125 42.6136 71.9698 41.483 70.2703 41.0312C70.1842 41.4094 69.9175 41.8592 69.6094 42.2316C71.0199 42.5078 72.6482 43.2772 74.1797 44.2924Z" fill="#194F9E"/>
<path fill-rule="evenodd" clip-rule="evenodd" d="M68.4158 82.134C68.499 82.0401 68.7677 81.7865 69.0429 81.5432C68.9537 81.2805 68.8806 81.068 68.8445 80.9621C68.5627 79.7125 67.9496 78.7481 67.0689 77.9688C66.8907 78.5556 66.3281 79.3544 66.3281 79.3544C66.9921 79.984 67.2754 80.3121 67.7399 81.0729C67.8998 81.331 68.1527 81.7944 68.3748 82.1836C68.3885 82.1665 68.4024 82.1484 68.4158 82.134Z" fill="#194F9E"/>
<path fill-rule="evenodd" clip-rule="evenodd" d="M74.0625 79.7809C74.9584 79.8088 75.812 79.9918 76.5923 80.3035C76.6458 79.9538 76.7445 79.2318 76.7858 78.8703L74.3511 78.4844L74.0625 79.7809Z" fill="#194F9E"/>
<path fill-rule="evenodd" clip-rule="evenodd" d="M63.0169 51.8105C62.861 51.9194 62.3121 52.2763 62.2578 52.3047C62.8155 52.4094 63.3206 52.3109 63.4411 52.2137C63.3262 52.117 63.0944 51.8726 63.0169 51.8105Z" fill="#194F9E"/>
<path fill-rule="evenodd" clip-rule="evenodd" d="M43.1875 12.0352L43.4104 13.2042L43.699 12.4019L43.1875 12.0352Z" fill="#194F9E"/>
<path fill-rule="evenodd" clip-rule="evenodd" d="M43.9232 15.9444L44.1822 14.9747L43.5781 14.1309L43.9232 15.9444Z" fill="#194F9E"/>
<path fill-rule="evenodd" clip-rule="evenodd" d="M45.5568 14.6784L46.3393 13.5852L45.9729 12.5645H44.2099L43.8438 13.5852L44.6267 14.6784H45.5568Z" fill="#194F9E"/>
<path fill-rule="evenodd" clip-rule="evenodd" d="M42.4609 8.20898L42.5824 8.84936L43.0408 8.20898H42.4609Z" fill="#194F9E"/>
<path fill-rule="evenodd" clip-rule="evenodd" d="M44.0975 9.88521H46.0865L47.1999 9.19534L46.4945 8.20898H43.6906L42.9844 9.19534L44.0975 9.88521Z" fill="#194F9E"/>
<path fill-rule="evenodd" clip-rule="evenodd" d="M44.3468 21.7095L43.4671 18.8457L42.3906 19.8442C43.0546 20.4072 43.7083 21.0307 44.3468 21.7095Z" fill="#194F9E"/>
<path fill-rule="evenodd" clip-rule="evenodd" d="M42.7344 9.64258L42.9763 10.9169L43.5747 10.1648L42.7344 9.64258Z" fill="#194F9E"/>
<path fill-rule="evenodd" clip-rule="evenodd" d="M39.9929 10.8594C39.7422 10.8756 39.5034 10.9028 39.2656 10.9307L39.4186 11.3556L39.9929 10.8594Z" fill="#194F9E"/>
<path fill-rule="evenodd" clip-rule="evenodd" d="M38.8485 14.5737L39.7127 13.7695L39.1707 12.2578L38.1953 13.1001L38.8485 14.5737Z" fill="#194F9E"/>
<path fill-rule="evenodd" clip-rule="evenodd" d="M38.9837 11.7346L38.723 11.0078C38.2508 11.0837 37.8063 11.1788 37.3984 11.301L37.9757 12.6048L38.9837 11.7346Z" fill="#194F9E"/>
<path fill-rule="evenodd" clip-rule="evenodd" d="M42.2597 19.2568L43.2985 18.2938L42.9486 17.1543L41.8672 18.1595L42.2597 19.2568Z" fill="#194F9E"/>
<path fill-rule="evenodd" clip-rule="evenodd" d="M47.7212 8.20898H47.1406L47.5995 8.84936L47.7212 8.20898Z" fill="#194F9E"/>
<path fill-rule="evenodd" clip-rule="evenodd" d="M41.6744 17.6256L42.7765 16.6007L42.3081 15.0762L41.1094 16.0494L41.6744 17.6256Z" fill="#194F9E"/>
<path fill-rule="evenodd" clip-rule="evenodd" d="M40.9263 15.5337L42.1453 14.5427L41.5937 12.7461L40.3438 13.9084L40.9263 15.5337Z" fill="#194F9E"/>
<path fill-rule="evenodd" clip-rule="evenodd" d="M40.1436 13.3721L41.4141 12.1902L40.9935 10.8223C40.9363 10.8227 40.8848 10.8279 40.828 10.8287L39.6094 11.8808L40.1436 13.3721Z" fill="#194F9E"/>
<path fill-rule="evenodd" clip-rule="evenodd" d="M49.0731 16.0493L47.8752 15.0762L47.4062 16.6006L48.5088 17.6256L49.0731 16.0493Z" fill="#194F9E"/>
<path fill-rule="evenodd" clip-rule="evenodd" d="M51.3252 14.5737L51.9783 13.1001L51.0029 12.2578L50.4609 13.7695L51.3252 14.5737Z" fill="#194F9E"/>
<path fill-rule="evenodd" clip-rule="evenodd" d="M50.8989 10.9306C50.6618 10.9031 50.4236 10.8759 50.1719 10.8594L50.7467 11.3556L50.8989 10.9306Z" fill="#194F9E"/>
<path fill-rule="evenodd" clip-rule="evenodd" d="M50.5549 11.8808L49.3362 10.8287C49.2793 10.8279 49.2279 10.8226 49.1703 10.8223L48.75 12.1899L50.0207 13.3721L50.5549 11.8808Z" fill="#194F9E"/>
<path fill-rule="evenodd" clip-rule="evenodd" d="M49.8413 13.9084L48.5916 12.7461L48.0391 14.5423L49.2583 15.5337L49.8413 13.9084Z" fill="#194F9E"/>
<path fill-rule="evenodd" clip-rule="evenodd" d="M54.9033 14.9425L55.7066 13.1984C55.5832 13.0327 55.4492 12.8757 55.3043 12.7278C55.1313 12.5523 54.9377 12.3923 54.731 12.2402L53.9062 14.0806L54.9033 14.9425Z" fill="#194F9E"/>
<path fill-rule="evenodd" clip-rule="evenodd" d="M53.4795 13.7136L54.2755 11.9384C53.9742 11.7623 53.6369 11.6117 53.278 11.4766L52.6172 12.9683L53.4795 13.7136Z" fill="#194F9E"/>
<path fill-rule="evenodd" clip-rule="evenodd" d="M52.7723 11.301C52.3647 11.1788 51.9202 11.0837 51.4482 11.0078L51.1875 11.7346L52.1946 12.6048L52.7723 11.301Z" fill="#194F9E"/>
<path fill-rule="evenodd" clip-rule="evenodd" d="M45.1019 10.4082H45.0909L44.1178 10.4244L43.25 11.4376L44.1126 12.0591H46.0801L46.9432 11.4376L46.0757 10.4244L45.1019 10.4082Z" fill="#194F9E"/>
<path fill-rule="evenodd" clip-rule="evenodd" d="M46.7803 13.2042L47.0032 12.0352L46.4922 12.4019L46.7803 13.2042Z" fill="#194F9E"/>
<path fill-rule="evenodd" clip-rule="evenodd" d="M56.146 16.0175H56.1509C56.3295 16.0043 56.5082 16 56.6854 15.9951C56.604 15.1291 56.396 14.3744 56.0446 13.7344L55.3203 15.3049L56.146 16.0175Z" fill="#194F9E"/>
<path fill-rule="evenodd" clip-rule="evenodd" d="M46.2517 15.9444L46.5967 14.1309L45.9922 14.9747L46.2517 15.9444Z" fill="#194F9E"/>
<path fill-rule="evenodd" clip-rule="evenodd" d="M47.2144 10.9169L47.4573 9.64258L46.625 10.1652L47.2144 10.9169Z" fill="#194F9E"/>
<path fill-rule="evenodd" clip-rule="evenodd" d="M45.8407 21.7095C46.4797 21.0307 47.8501 19.7943 47.7917 19.8442L46.7167 18.8457L45.8359 21.7095H45.8407Z" fill="#194F9E"/>
<path fill-rule="evenodd" clip-rule="evenodd" d="M48.3146 18.1596L47.2326 17.1543L46.8828 18.2938L47.9212 19.2569L48.3146 18.1596Z" fill="#194F9E"/>
</g>
</g>
<defs>
<clipPath id="clip0_511_6423">
<rect width="90" height="114" fill="white"/>
</clipPath>
</defs>
</svg>
