<svg width="24" height="24" viewBox="0 0 24 24" fill="none" xmlns="http://www.w3.org/2000/svg">
<path d="M16.3998 1H7.60215C3.96395 1 1.00391 3.96004 1.00391 7.59824V12.7302C1.00391 16.2456 3.7671 19.1276 7.23558 19.3185V22.3772C7.23558 22.7207 7.51564 23 7.85985 23C8.02443 23 8.18023 22.9348 8.29789 22.8171L8.98558 22.1294C10.7913 20.3233 13.1927 19.3284 15.7469 19.3284H16.3998C20.038 19.3284 22.998 16.3684 22.998 12.7302V7.59824C22.998 3.96004 20.038 1 16.3998 1ZM7.23558 11.6305C6.42693 11.6305 5.7693 10.9729 5.7693 10.1642C5.7693 9.35557 6.42693 8.69795 7.23558 8.69795C8.04423 8.69795 8.70185 9.35557 8.70185 10.1642C8.70185 10.9729 8.04386 11.6305 7.23558 11.6305ZM12.001 11.6305C11.1923 11.6305 10.5347 10.9729 10.5347 10.1642C10.5347 9.35557 11.1923 8.69795 12.001 8.69795C12.8096 8.69795 13.4672 9.35557 13.4672 10.1642C13.4672 10.9729 12.8093 11.6305 12.001 11.6305ZM16.7664 11.6305C15.9577 11.6305 15.3001 10.9729 15.3001 10.1642C15.3001 9.35557 15.9577 8.69795 16.7664 8.69795C17.575 8.69795 18.2326 9.35557 18.2326 10.1642C18.2326 10.9729 17.5747 11.6305 16.7664 11.6305Z" fill="#CBC7C7"/>
</svg>
