<svg width="24" height="24" viewBox="0 0 24 24" fill="none" xmlns="http://www.w3.org/2000/svg">
<g clip-path="url(#clip0_742_9492)">
<path d="M16.364 1.36364C16.364 0.610521 15.7535 0 15.0004 0C14.2472 0 13.6367 0.610521 13.6367 1.36364V3C13.6367 3.75312 14.2472 4.36364 15.0004 4.36364C15.7535 4.36364 16.364 3.75312 16.364 3V1.36364Z" fill="#CBC7C7"/>
<path d="M17.4545 1.63647V3.00011C17.4545 3.6511 17.1959 4.27542 16.7356 4.73574C16.2753 5.19605 15.651 5.45466 15 5.45466C14.349 5.45466 13.7247 5.19605 13.2644 4.73574C12.8041 4.27542 12.5455 3.6511 12.5455 3.00011V1.63647H7.63636V3.00011C7.63636 3.6511 7.37776 4.27542 6.91744 4.73574C6.45713 5.19605 5.8328 5.45466 5.18182 5.45466C4.53083 5.45466 3.90651 5.19605 3.44619 4.73574C2.98588 4.27542 2.72727 3.6511 2.72727 3.00011V1.63647C2.00395 1.63647 1.31026 1.92381 0.7988 2.43527C0.287337 2.94674 0 3.64043 0 4.36375V7.09102H20.1818V4.36375C20.1818 3.64043 19.8945 2.94674 19.383 2.43527C18.8716 1.92381 18.1779 1.63647 17.4545 1.63647Z" fill="#CBC7C7"/>
<path d="M6.54563 1.36364C6.54563 0.610521 5.93511 0 5.182 0C4.42888 0 3.81836 0.610521 3.81836 1.36364V3C3.81836 3.75312 4.42888 4.36364 5.182 4.36364C5.93511 4.36364 6.54563 3.75312 6.54563 3V1.36364Z" fill="#CBC7C7"/>
<path d="M12 18.5455C11.9996 17.465 12.267 16.4012 12.7784 15.4493C13.2897 14.4975 14.029 13.6872 14.9302 13.091H14.1818C13.8925 13.091 13.615 12.976 13.4104 12.7715C13.2058 12.5669 13.0909 12.2894 13.0909 12.0001V10.9092C13.0909 10.6198 13.2058 10.3424 13.4104 10.1378C13.615 9.93318 13.8925 9.81825 14.1818 9.81825H15.2727C15.5621 9.81825 15.8395 9.93318 16.0441 10.1378C16.2487 10.3424 16.3636 10.6198 16.3636 10.9092V12.0001C16.3635 12.1408 16.3359 12.2801 16.2824 12.4102C17.5302 11.9409 18.8933 11.8725 20.1818 12.2144V8.18188H0V18.5455C0 18.9037 0.070543 19.2583 0.207601 19.5892C0.34466 19.9201 0.545549 20.2207 0.7988 20.474C1.05205 20.7272 1.3527 20.9281 1.68359 21.0652C2.01448 21.2022 2.36912 21.2728 2.72727 21.2728H12.6C12.2049 20.4179 12.0002 19.4873 12 18.5455ZM6.54545 17.4546C6.54545 17.7439 6.43052 18.0214 6.22593 18.226C6.02135 18.4306 5.74387 18.5455 5.45455 18.5455H4.36364C4.07431 18.5455 3.79683 18.4306 3.59225 18.226C3.38766 18.0214 3.27273 17.7439 3.27273 17.4546V16.3637C3.27273 16.0744 3.38766 15.7969 3.59225 15.5923C3.79683 15.3877 4.07431 15.2728 4.36364 15.2728H5.45455C5.74387 15.2728 6.02135 15.3877 6.22593 15.5923C6.43052 15.7969 6.54545 16.0744 6.54545 16.3637V17.4546ZM6.54545 12.0001C6.54545 12.2894 6.43052 12.5669 6.22593 12.7715C6.02135 12.976 5.74387 13.091 5.45455 13.091H4.36364C4.07431 13.091 3.79683 12.976 3.59225 12.7715C3.38766 12.5669 3.27273 12.2894 3.27273 12.0001V10.9092C3.27273 10.6198 3.38766 10.3424 3.59225 10.1378C3.79683 9.93318 4.07431 9.81825 4.36364 9.81825H5.45455C5.74387 9.81825 6.02135 9.93318 6.22593 10.1378C6.43052 10.3424 6.54545 10.6198 6.54545 10.9092V12.0001ZM11.4545 17.4546C11.4545 17.7439 11.3396 18.0214 11.135 18.226C10.9304 18.4306 10.653 18.5455 10.3636 18.5455H9.27273C8.9834 18.5455 8.70592 18.4306 8.50134 18.226C8.29675 18.0214 8.18182 17.7439 8.18182 17.4546V16.3637C8.18182 16.0744 8.29675 15.7969 8.50134 15.5923C8.70592 15.3877 8.9834 15.2728 9.27273 15.2728H10.3636C10.653 15.2728 10.9304 15.3877 11.135 15.5923C11.3396 15.7969 11.4545 16.0744 11.4545 16.3637V17.4546ZM11.4545 12.0001C11.4545 12.2894 11.3396 12.5669 11.135 12.7715C10.9304 12.976 10.653 13.091 10.3636 13.091H9.27273C8.9834 13.091 8.70592 12.976 8.50134 12.7715C8.29675 12.5669 8.18182 12.2894 8.18182 12.0001V10.9092C8.18182 10.6198 8.29675 10.3424 8.50134 10.1378C8.70592 9.93318 8.9834 9.81825 9.27273 9.81825H10.3636C10.653 9.81825 10.9304 9.93318 11.135 10.1378C11.3396 10.3424 11.4545 10.6198 11.4545 10.9092V12.0001Z" fill="#CBC7C7"/>
<path d="M18.5463 13.0908C17.4675 13.0908 16.413 13.4107 15.516 14.0101C14.619 14.6094 13.9198 15.4613 13.507 16.458C13.0942 17.4547 12.9861 18.5514 13.1966 19.6095C13.4071 20.6676 13.9266 21.6395 14.6894 22.4023C15.4522 23.1651 16.4241 23.6846 17.4822 23.8951C18.5403 24.1056 19.637 23.9976 20.6337 23.5847C21.6304 23.1719 22.4823 22.4727 23.0816 21.5757C23.681 20.6788 24.0009 19.6242 24.0009 18.5454C24.0009 17.8291 23.8598 17.1198 23.5857 16.458C23.3116 15.7962 22.9098 15.1949 22.4033 14.6884C21.8968 14.1819 21.2955 13.7801 20.6337 13.506C19.9719 13.2319 19.2626 13.0908 18.5463 13.0908ZM20.5683 20.5674C20.4661 20.6696 20.3273 20.7271 20.1827 20.7271C20.0381 20.7271 19.8994 20.6696 19.7971 20.5674L18.1607 18.931C18.0584 18.8287 18.0009 18.69 18.0009 18.5454V15.2726C18.0009 15.128 18.0584 14.9892 18.1607 14.8869C18.2629 14.7847 18.4017 14.7272 18.5463 14.7272C18.691 14.7272 18.8297 14.7847 18.932 14.8869C19.0343 14.9892 19.0918 15.128 19.0918 15.2726V18.3195L20.5683 19.7961C20.6706 19.8984 20.728 20.0371 20.728 20.1817C20.728 20.3264 20.6706 20.4651 20.5683 20.5674Z" fill="#CBC7C7"/>
</g>
<defs>
<clipPath id="clip0_742_9492">
<rect width="24" height="24" fill="white"/>
</clipPath>
</defs>
</svg>
