<svg width="46" height="46" viewBox="0 0 46 46" fill="none" xmlns="http://www.w3.org/2000/svg">
<g clip-path="url(#clip0_201_1848)">
<path d="M14.0156 40.034C13.7281 39.8184 13.3688 39.6027 13.0813 39.459C13.1531 38.884 13.0813 38.2371 12.9375 37.5902C12.65 36.5121 12.075 35.5059 11.2844 34.5715C10.5656 35.1465 10.2063 36.1527 10.35 37.2309C9.84688 36.7277 9.34375 36.2246 8.9125 35.7215C9.2 35.2184 9.34375 34.5715 9.34375 33.9246C9.41563 32.8465 9.2 31.7684 8.69688 30.6902C7.7625 31.0496 7.1875 31.984 7.04375 33.0621C6.68438 32.4871 6.39688 31.8402 6.10938 31.2652C6.54063 30.834 6.9 30.259 7.11563 29.6121C7.475 28.6059 7.54688 27.5277 7.33125 26.3777C6.325 26.5215 5.4625 27.2402 5.03125 28.3184C4.81563 27.5996 4.67188 26.9527 4.6 26.234C5.175 25.9465 5.67813 25.4434 6.0375 24.8684C6.6125 24.0059 7.04375 22.9277 7.11563 21.7777C6.0375 21.634 4.95938 22.209 4.3125 23.2152C4.3125 22.4965 4.38438 21.7059 4.45625 20.9871C5.10313 20.8434 5.75 20.484 6.325 20.0527C7.11563 19.4059 7.7625 18.4715 8.19375 17.3934C7.1875 16.9621 5.96563 17.2496 5.03125 18.1121C5.24688 17.3934 5.4625 16.6027 5.75 15.884C6.46875 15.9559 7.1875 15.7402 7.83438 15.4527C8.76875 15.0215 9.63125 14.3027 10.35 13.2965C9.4875 12.5777 8.19375 12.5777 7.04375 13.2246C7.475 12.5059 7.90625 11.859 8.40938 11.2121C9.05625 11.4996 9.84688 11.4996 10.6375 11.3559C11.7156 11.1402 12.7938 10.709 13.8 9.91836C13.1531 8.98398 11.8594 8.62461 10.4938 8.98398C11.5 8.04961 12.5781 7.18711 13.8719 6.46836C14.2313 6.25273 14.375 5.82148 14.1594 5.46211C13.9438 5.10273 13.4406 4.95898 13.0813 5.17461C11.7156 5.96523 10.4938 6.89961 9.41563 7.90586C9.99063 6.46836 10.0625 5.17461 9.41563 4.16836C8.12188 5.03086 7.1875 6.46836 6.97188 7.69023C6.75625 8.62461 6.9 9.41523 7.33125 10.0621C6.75625 10.7809 6.25313 11.5715 5.82188 12.2902C5.96563 10.7809 5.60625 9.48711 4.74375 8.76836C3.7375 10.134 3.30625 11.7152 3.45 12.9371C3.52188 13.8715 3.88125 14.5902 4.45625 15.0934C4.09688 15.9559 3.80938 16.7465 3.59375 17.609C3.30625 16.1715 2.65938 15.0215 1.58125 14.5184C1.00625 16.0996 1.00625 17.6809 1.4375 18.8309C1.79688 19.6934 2.3 20.2684 3.01875 20.6277C2.875 21.4902 2.875 22.3527 2.875 23.2152C2.22813 21.9215 1.29375 21.059 0.143754 20.9152C3.67989e-06 22.5684 0.431254 24.0777 1.15 25.084C1.65313 25.8027 2.37188 26.234 3.09063 26.3777C3.1625 27.2402 3.37813 28.0309 3.52188 28.8215C2.5875 27.8152 1.50938 27.2402 0.359379 27.384C0.646879 29.0371 1.4375 30.4027 2.44375 31.1215C3.09063 31.6965 3.88125 31.9121 4.52813 31.8402C4.81563 32.559 5.175 33.3496 5.53438 33.9965C4.3125 33.4934 3.1625 33.2059 2.15625 33.6371C2.875 35.1465 4.025 36.2965 5.175 36.7996C5.96563 37.159 6.68438 37.159 7.33125 37.0152C7.83438 37.6621 8.3375 38.2371 8.9125 38.8121C7.69063 38.5246 6.6125 38.5965 5.82188 39.2434C6.97188 40.5371 8.48125 41.3277 9.775 41.5434C10.5656 41.6871 11.2844 41.5434 11.8594 41.2559C12.1469 41.4715 12.5063 41.6871 12.7938 41.9027C13.3688 42.2621 14.0875 42.0465 14.375 41.4715C14.6625 40.9684 14.5188 40.3215 14.0156 40.034ZM42.6219 28.8215C42.8375 28.0309 42.9813 27.1684 43.0531 26.3777C43.7719 26.234 44.4188 25.8027 44.9938 25.084C45.7125 24.0777 46.1438 22.5684 46 20.9152C44.85 21.059 43.9156 21.9934 43.2688 23.2152C43.2688 22.3527 43.1969 21.4902 43.125 20.6277C43.7719 20.3402 44.3469 19.6934 44.7063 18.8309C45.1375 17.6809 45.2094 16.0996 44.5625 14.5184C43.4844 15.0215 42.8375 16.1715 42.55 17.609C42.3344 16.7465 42.0469 15.884 41.6875 15.0934C42.2625 14.5902 42.6219 13.8715 42.6938 12.9371C42.8375 11.7152 42.4063 10.134 41.4 8.76836C40.4656 9.48711 40.1781 10.8527 40.3219 12.2902C39.7469 11.4996 39.2438 10.7809 38.6688 10.0621C39.1 9.48711 39.2438 8.62461 39.0281 7.69023C38.8125 6.46836 37.8781 5.03086 36.4406 3.88086C35.7938 4.81523 35.8656 6.18086 36.4406 7.61836C35.3625 6.61211 34.1406 5.67773 32.775 4.88711C32.4156 4.67148 31.9125 4.81523 31.6969 5.17461C31.4813 5.53398 31.625 5.96523 31.9844 6.18086C33.2063 6.89961 34.3563 7.76211 35.3625 8.69648C33.9969 8.33711 32.7031 8.69648 32.0563 9.63086C33.0625 10.4215 34.1406 10.8527 35.2188 11.0684C36.0094 11.2121 36.8 11.2121 37.4469 10.9246C37.95 11.5715 38.4531 12.2902 38.8125 12.9371C37.6625 12.2902 36.3688 12.2902 35.5063 13.009C36.225 13.9434 37.0875 14.734 38.0219 15.1652C38.7406 15.5246 39.4594 15.6684 40.1063 15.5965C40.3938 16.3152 40.6094 17.034 40.825 17.8246C39.8906 16.9621 38.6688 16.6746 37.6625 17.1059C38.0938 18.184 38.7406 19.1184 39.5313 19.7652C40.1063 20.2684 40.7531 20.5559 41.4 20.6996C41.4719 21.4184 41.5438 22.209 41.5438 22.9277C40.8969 21.9215 39.8188 21.3465 38.7406 21.4902C38.8844 22.6402 39.2438 23.7184 39.8188 24.5809C40.1781 25.1559 40.6813 25.659 41.2563 25.9465C41.1125 26.6652 40.9688 27.3121 40.825 28.0309C40.3938 26.9527 39.6031 26.1621 38.525 26.0902C38.3094 27.2402 38.4531 28.3902 38.7406 29.3246C38.9563 29.9715 39.2438 30.5465 39.7469 30.9777C39.4594 31.6246 39.1719 32.1996 38.8125 32.7746C38.6688 31.6965 38.0938 30.7621 37.1594 30.4027C36.6563 31.4809 36.4406 32.559 36.5125 33.6371C36.5125 34.284 36.6563 34.9309 36.9438 35.434C36.5125 35.9371 36.0094 36.4402 35.5063 36.9434C35.65 35.8652 35.3625 34.859 34.5719 34.284C33.7813 35.2184 33.2063 36.2246 32.9188 37.3027C32.775 37.9496 32.7031 38.5965 32.775 39.1715C32.4875 39.3871 32.2 39.6027 31.8406 39.7465C31.3375 40.034 31.1938 40.6809 31.4094 41.184C31.6969 41.759 32.4156 41.9746 32.9906 41.6152C33.35 41.3996 33.6375 41.184 33.925 40.9684C34.5 41.2559 35.2188 41.3996 36.0094 41.2559C37.3031 41.0402 38.8125 40.2496 39.9625 38.9559C39.1719 38.309 38.0938 38.2371 36.8719 38.5246C37.4469 37.9496 37.95 37.3746 38.4531 36.7277C39.1 36.8715 39.8188 36.7996 40.6094 36.5121C41.7594 36.009 42.9094 34.9309 43.6281 33.3496C42.6219 32.9184 41.4719 33.2059 40.3938 33.8527C40.7531 33.134 41.1125 32.4152 41.4 31.6965C42.1188 31.6965 42.8375 31.4809 43.4844 30.9777C44.4188 30.1871 45.2813 28.8934 45.5688 27.2402C44.6344 27.2402 43.5563 27.8871 42.6219 28.8215Z" fill="#E1401C"/>
<path d="M31.841 35.4344L30.3316 26.7375L36.6566 20.5563C36.8723 20.3406 36.9441 20.0531 36.8723 19.8375C36.8004 19.55 36.5848 19.4062 36.2973 19.3344L27.5285 18.0406L23.6473 10.1344C23.5035 9.91875 23.2879 9.70312 23.0004 9.70312C22.7129 9.70312 22.4973 9.84688 22.3535 10.1344L18.4723 18.0406L9.70352 19.3344C9.41602 19.4062 9.20039 19.55 9.12852 19.8375C9.05664 20.125 9.12852 20.4125 9.34414 20.5563L15.6691 26.7375L14.1598 35.4344C14.0879 35.7219 14.2316 36.0094 14.4473 36.1531C14.6629 36.2969 14.9504 36.3688 15.2379 36.225L23.0004 32.0562L30.8348 36.1531C30.9066 36.225 31.0504 36.225 31.1941 36.225C31.3379 36.225 31.4816 36.1531 31.6254 36.0813C31.7691 35.9375 31.9129 35.7219 31.841 35.4344Z" fill="#E1401C"/>
</g>
<defs>
<clipPath id="clip0_201_1848">
<rect width="46" height="46" fill="white"/>
</clipPath>
</defs>
</svg>
