<svg width="46" height="46" viewBox="0 0 46 46" fill="none" xmlns="http://www.w3.org/2000/svg">
<path d="M12.4983 31.0473C11.8599 30.3829 10.7421 30.3004 10.0124 30.8544L9.99325 30.842L8.34204 32.4932C7.97999 32.8541 7.78149 33.3357 7.78149 33.8478C7.75972 34.879 8.66766 35.7849 9.69775 35.764C10.2974 35.7737 10.8315 35.474 11.2226 35.0332L12.4983 33.7576C12.7656 33.4902 12.9449 33.1575 13.0193 32.7955C13.153 32.1693 12.9554 31.4977 12.4983 31.0473ZM7.90544 25.4338C7.158 24.6863 5.9435 24.6871 5.19516 25.4338C5.02124 25.6086 3.94885 26.6803 3.75034 26.8798C2.02661 28.7505 4.58779 31.3127 6.4595 29.59L7.90544 28.1441C8.65334 27.3975 8.65334 26.1816 7.90544 25.4338ZM16.4165 35.4178C15.9045 35.4178 15.4229 35.6174 15.0608 35.9795L13.6149 37.4254C13.6081 37.4322 13.6013 37.4389 13.5946 37.4468C12.87 38.1627 12.8808 39.4303 13.6149 40.1357C14.3626 40.8824 15.5785 40.8824 16.3252 40.1357L17.7722 38.6886C18.9707 37.4932 18.1092 35.4114 16.4165 35.4178ZM29.2766 14.1472C26.3181 16.0127 22.3514 15.6585 19.7765 13.0836L16.4244 9.73264L20.6077 5.54935C16.1146 0.507177 8.2138 0.18731 3.43116 5.00244C-1.37743 9.77832 -1.06919 17.6697 3.96239 22.1642C7.62663 20.1162 12.1326 22.9767 11.8361 27.1494C14.2624 27.4117 16.3165 29.6108 16.4277 32.0377C18.7093 31.9888 20.9756 33.6976 21.5313 35.9514C23.4308 35.4423 25.5596 36.073 26.8605 37.5778L26.8989 37.5327C28.7848 38.6649 30.78 36.3393 29.3577 34.6453L29.361 34.6408C29.3317 34.6126 21.7445 27.0254 21.7445 27.0254L24.1367 24.6331L31.6664 32.1628C33.537 33.8862 36.0998 31.3234 34.3756 29.4526L26.847 21.9229L29.2392 19.5306L36.7689 27.0603C37.482 27.8031 38.7661 27.8028 39.4792 27.0603C40.2259 26.3125 40.2259 25.0967 39.4792 24.35L29.2766 14.1472Z" fill="#E1401C"/>
<path d="M42.5683 5.00222C37.9835 0.41853 30.5237 0.41853 25.9389 5.00222C25.0474 5.89426 22.0516 8.89069 21.2097 9.73254L22.1684 10.6912C23.8354 12.3582 26.5468 12.3582 28.2127 10.6912L29.4094 9.49455C30.0456 10.1378 41.7246 21.7969 42.0528 22.1482C47.0723 17.652 47.3698 9.7719 42.5683 5.00222ZM24.2347 39.7216C23.4868 38.9749 22.2718 38.974 21.5244 39.7216L20.0784 41.1676C19.3344 41.8809 19.3347 43.1645 20.0784 43.8779C20.7927 44.6202 22.0749 44.6198 22.7887 43.8779L24.2347 42.4319C24.9771 41.7196 24.9771 40.4323 24.2347 39.7216Z" fill="#E1401C"/>
</svg>
