<svg width="46" height="46" viewBox="0 0 46 46" fill="none" xmlns="http://www.w3.org/2000/svg">
<g clip-path="url(#clip0_201_1840)">
<path d="M23 0C18.5411 0 14.9141 3.71693 14.9141 8.17578C14.9141 12.6346 18.5411 16.2617 23 16.2617C27.4589 16.2617 31.0859 12.6346 31.0859 8.17578C31.0859 3.71693 27.4589 0 23 0ZM23 35.1289C22.2565 35.1289 21.6523 35.733 21.6523 36.4766C21.6523 37.2201 22.2565 37.8242 23 37.8242C23.7435 37.8242 24.3477 37.2201 24.3477 36.4766C24.3477 35.733 23.7435 35.1289 23 35.1289Z" fill="#E1401C"/>
<path d="M41.8132 28.4368C41.4339 27.9993 40.965 27.6484 40.4382 27.4079C39.9114 27.1674 39.3391 27.043 38.76 27.0431H7.24009C6.06745 27.0431 4.95536 27.5511 4.18684 28.4368C3.41832 29.3226 3.07215 30.4965 3.23791 31.6586L5.49362 44.8433C5.5884 45.5066 6.15693 46.0001 6.82815 46.0001H39.1719C39.8431 46.0001 40.4117 45.5066 40.5064 44.8433L42.7622 31.6586C42.8442 31.0849 42.802 30.5003 42.6382 29.9444C42.4745 29.3886 42.1931 28.8744 41.8132 28.4368ZM23 40.5197C20.7706 40.5197 18.9571 38.7061 18.9571 36.4767C18.9571 34.2473 20.7706 32.4337 23 32.4337C25.2294 32.4337 27.043 34.2473 27.043 36.4767C27.043 38.7061 25.2294 40.5197 23 40.5197ZM29.8875 16.4004C28.0138 17.9722 25.6314 18.9572 23 18.9572C20.3687 18.9572 17.9863 17.9722 16.1125 16.4004C12.0715 17.0536 8.90166 20.2805 8.31201 24.3478H37.688C37.0984 20.2805 33.9285 17.0536 29.8875 16.4004Z" fill="#E1401C"/>
</g>
<defs>
<clipPath id="clip0_201_1840">
<rect width="46" height="46" fill="white"/>
</clipPath>
</defs>
</svg>
