<svg width="32" height="25" viewBox="0 0 32 25" fill="none" xmlns="http://www.w3.org/2000/svg">
<path d="M32 1.09658C31.4683 3.42264 30.7373 5.94808 29.8069 8.6729C28.9429 11.3977 27.9792 14.1225 26.9159 16.8474C25.919 19.5057 24.9221 22.0312 23.9252 24.4237H17.4455C18.0436 21.8982 18.6417 19.2066 19.2399 16.3489C19.9045 13.4247 20.5026 10.567 21.0343 7.7757C21.5659 4.91797 21.9647 2.32607 22.2305 0H31.4019L32 1.09658ZM14.3551 1.09658C13.8235 3.42264 13.0924 5.94808 12.162 8.6729C11.298 11.3977 10.3344 14.1225 9.27103 16.8474C8.27414 19.5057 7.27726 22.0312 6.28037 24.4237H0C0.465213 22.5628 0.897196 20.5691 1.29595 18.4424C1.76116 16.3157 2.19315 14.189 2.5919 12.0623C3.05711 9.86916 3.45587 7.74247 3.78816 5.68225C4.12046 3.62202 4.38629 1.72793 4.58567 0H13.757L14.3551 1.09658Z" fill="#EAE3CC"/>
</svg>
