<svg width="32" height="25" viewBox="0 0 32 25" fill="none" xmlns="http://www.w3.org/2000/svg">
<path d="M32 0C31.4019 2.52544 30.8037 5.25026 30.2056 8.17446C29.6075 11.0987 29.0426 13.9564 28.5109 16.7477C28.0457 19.5389 27.6469 22.0976 27.3146 24.4237H18.1433L17.4455 23.3271C18.0436 21.001 18.7747 18.5088 19.6386 15.8505C20.5026 13.1257 21.4662 10.4008 22.5296 7.67601C23.5929 4.9512 24.6231 2.39252 25.6199 0H32ZM14.3551 0C13.757 2.52544 13.1589 5.25026 12.5607 8.17446C11.9626 11.0987 11.3977 13.9564 10.866 16.7477C10.4008 19.5389 10.0021 22.0976 9.66978 24.4237H0.598131L0 23.3271C0.598131 21.001 1.32918 18.5088 2.19315 15.8505C3.05711 13.1257 3.98754 10.4008 4.98442 7.67601C6.04777 4.9512 7.07788 2.39252 8.07477 0H14.3551Z" fill="#EAE3CC"/>
</svg>
