<svg width="319" height="319" viewBox="0 0 319 319" fill="none" xmlns="http://www.w3.org/2000/svg">
<g opacity="0.05" clip-path="url(#clip0_1_11341)">
<path d="M280.011 207.707C279.722 206.295 278.331 205.255 277.169 204.609C270.006 202.69 209.009 183.676 228.203 112.045C228.787 109.865 227.419 107.496 225.239 106.912C223.059 106.328 220.689 107.696 220.105 109.876C200.912 181.506 138.58 167.475 131.728 165.639C130.794 165.388 129.776 165.45 128.986 165.905C128.28 166.05 127.802 166.589 127.407 166.817C126.45 167.896 126.033 169.453 126.322 170.866C126.611 172.279 127.918 173.63 129.475 174.048L129.787 174.131C136.95 176.05 197.635 194.981 178.442 266.612C177.858 268.792 179.225 271.161 181.406 271.745C183.586 272.329 185.955 270.961 186.539 268.781C205.649 197.462 267.753 211.099 274.916 213.018C276.473 213.436 277.969 212.835 279.237 211.84C280.194 210.761 280.611 209.204 280.011 207.707ZM190.357 237.092C189.253 205.086 170.562 186.392 154.624 176.113C173.567 175.18 199.1 168.336 216.059 141.17C217.163 173.176 235.854 191.87 251.792 202.149C232.85 203.082 207.316 209.926 190.357 237.092ZM174.019 92.5199C176.199 93.1041 178.568 91.7361 179.236 89.2446C179.82 87.0646 178.452 84.6953 176.272 84.1111C172.534 83.1097 139.233 72.8515 149.748 33.6105C150.332 31.4305 148.964 29.0611 146.784 28.477C144.604 27.8929 142.235 29.2608 141.65 31.4408C131.136 70.6818 97.1669 62.9151 93.4297 61.9137L93.1182 61.8302C90.8547 61.5575 88.8803 62.6974 88.2961 64.8775C87.712 67.0576 89.0799 69.4269 91.26 70.011C95.3086 71.0958 128.299 81.2706 117.784 120.512C117.2 122.692 118.568 125.061 120.748 125.645C122.533 126.457 124.902 125.089 125.486 122.909C136.001 83.6683 169.97 91.4351 173.707 92.4365L174.019 92.5199ZM127.53 99.0896C125.718 85.9198 118.438 76.9596 111.031 70.9693C121.064 69.6521 131.392 64.7422 139.379 54.8656C141.191 68.0354 148.47 76.9956 155.878 82.986C145.845 84.3032 135.517 89.2131 127.53 99.0896ZM102.821 214.972C99.0837 213.971 65.7824 203.713 76.297 164.472C76.8812 162.292 75.5132 159.922 73.3332 159.338C71.1531 158.754 68.7838 160.122 68.1997 162.302C57.6851 201.543 23.7162 193.776 19.9789 192.775L19.6675 192.691C17.404 192.419 15.4296 193.559 14.8454 195.739C14.2613 197.919 15.6292 200.288 17.8092 200.872C21.8579 201.957 54.8478 212.132 44.3332 251.373C43.7491 253.553 45.117 255.922 47.2971 256.506C48.9988 257.63 51.3681 256.262 52.0357 253.77C62.5503 214.529 96.5192 222.296 100.256 223.298L100.568 223.381C102.748 223.965 105.117 222.597 105.785 220.106C106.369 217.926 105.001 215.556 102.821 214.972ZM53.9953 230.262C51.872 217.009 44.9042 208.132 37.4968 202.142C47.5299 200.825 57.858 195.915 65.8451 186.038C67.657 199.208 74.9363 208.168 82.3436 214.159C72.3106 215.476 61.9825 220.386 53.9953 230.262Z" fill="black"/>
</g>
<defs>
<clipPath id="clip0_1_11341">
<rect width="260" height="260" fill="white" transform="translate(67.293) rotate(15)"/>
</clipPath>
</defs>
</svg>
