<svg width="656" height="433" viewBox="0 0 656 433" fill="none" xmlns="http://www.w3.org/2000/svg">
<g style="mix-blend-mode:luminosity" opacity="0.15">
<path d="M325.739 377.454C443.948 287.271 508.363 219.418 586.35 126.437L649.362 46.1064C660.477 31.9363 655.646 11.1207 639.426 3.29486C627.702 -2.36161 613.602 0.773542 605.348 10.8387L602.55 14.2496C524.676 109.207 471.736 173.762 397.402 241.601C389.419 248.887 378.034 240.119 382.964 230.501C412.535 172.81 443.339 119.905 483.48 52.8071C491.952 38.645 487.995 20.3238 474.406 10.9601C460.779 1.57029 442.191 4.46269 431.928 17.4443C364.957 102.15 313.047 160.219 246.784 218.365C238.906 225.278 228.255 217.162 233.148 207.894C251.031 174.019 274.028 139.413 306.157 96.8564C316.268 83.4635 315.799 64.7883 304.779 52.1329C293.724 39.4383 275.181 36.3325 260.856 45.1726C237.225 59.7557 216.932 73.4701 198.706 86.0648C174.051 103.103 154.298 117.284 134.415 129.587C102.85 149.118 72.0691 163.196 27.272 170.567C11.1952 173.212 -0.830248 187.381 0.618499 203.61C2.06803 219.847 16.4494 231.96 32.5615 229.48C87.9756 220.95 126.918 203.59 165.36 179.804C171.597 175.945 179.5 183.218 176.196 189.767C159.662 222.545 146.998 255.563 135.505 293.914C130.728 309.854 137.099 326.94 150.831 336.338C164.603 345.764 182.866 345.441 196.155 335.345C224.414 313.875 249.761 293.558 273.272 273.432C281.7 266.218 295.11 276.22 290.487 286.305C283.645 301.232 276.686 316.82 269.523 333.275C262.833 348.645 267.433 366.565 280.589 376.952C293.786 387.372 312.37 387.652 325.739 377.454Z" fill="url(#paint0_linear_45_1297)" fill-opacity="0.6"/>
<path d="M505.33 431.655L457.7 396.936M586.35 126.437C508.363 219.418 443.948 287.271 325.739 377.454C312.37 387.652 293.786 387.372 280.589 376.952C267.433 366.565 262.833 348.645 269.523 333.275C276.686 316.82 283.645 301.232 290.487 286.305C295.11 276.22 281.7 266.218 273.272 273.432C249.761 293.558 224.414 313.875 196.155 335.345C182.866 345.441 164.603 345.764 150.831 336.338C137.099 326.94 130.728 309.854 135.505 293.914C146.998 255.563 159.662 222.545 176.196 189.767C179.5 183.218 171.597 175.945 165.36 179.804C126.918 203.59 87.9756 220.95 32.5615 229.48C16.4494 231.96 2.06803 219.847 0.618499 203.61C-0.830249 187.381 11.1952 173.212 27.272 170.567C72.0691 163.196 102.85 149.118 134.415 129.587C154.298 117.284 174.051 103.103 198.706 86.0648C216.932 73.4701 237.225 59.7557 260.856 45.1726C275.181 36.3325 293.724 39.4383 304.779 52.1329C315.799 64.7883 316.268 83.4635 306.157 96.8564C274.028 139.413 251.031 174.019 233.148 207.894C228.255 217.162 238.906 225.278 246.784 218.365C313.047 160.219 364.957 102.15 431.928 17.4443C442.191 4.46269 460.779 1.57029 474.406 10.9601C487.995 20.3238 491.952 38.645 483.48 52.8071C443.339 119.905 412.535 172.81 382.964 230.501C378.034 240.119 389.419 248.887 397.402 241.601C472.623 172.953 525.936 107.668 605.348 10.8387C613.602 0.773542 627.702 -2.36161 639.426 3.29486C655.646 11.1207 660.477 31.9363 649.362 46.1064L586.35 126.437Z" stroke="url(#paint1_linear_45_1297)" stroke-opacity="0.32" stroke-linejoin="bevel"/>
</g>
<defs>
<linearGradient id="paint0_linear_45_1297" x1="495.648" y1="70.974" x2="39.5987" y2="262.878" gradientUnits="userSpaceOnUse">
<stop stop-color="white" stop-opacity="0"/>
<stop offset="0.214911" stop-color="white" stop-opacity="0.794049"/>
<stop offset="0.509615" stop-color="white" stop-opacity="0.5"/>
<stop offset="0.68166" stop-color="white" stop-opacity="0.71"/>
<stop offset="1" stop-color="white" stop-opacity="0"/>
</linearGradient>
<linearGradient id="paint1_linear_45_1297" x1="612.037" y1="95.4188" x2="173.956" y2="386.873" gradientUnits="userSpaceOnUse">
<stop stop-color="white" stop-opacity="0"/>
<stop offset="0.286168" stop-color="white"/>
<stop offset="1" stop-color="white" stop-opacity="0.2"/>
</linearGradient>
</defs>
</svg>
