<svg width="36" height="36" viewBox="0 0 36 36" fill="none" xmlns="http://www.w3.org/2000/svg">
<g opacity="0.8" clip-path="url(#clip0_1_13976)">
<path d="M32.0873 3.12891H22.6957C22.2637 3.12891 21.9131 3.47955 21.9131 3.91156C21.9131 4.34358 22.2637 4.69422 22.6957 4.69422H32.0873C32.5194 4.69422 32.87 4.34358 32.87 3.91156C32.87 3.47955 32.5194 3.12891 32.0873 3.12891Z" fill="#4D4D4D"/>
<path d="M32.6413 3.35948L29.5107 0.22892C29.2055 -0.0763068 28.7093 -0.0763068 28.404 0.22892C28.0988 0.534148 28.0988 1.03036 28.404 1.33559L30.9805 3.91204L28.4025 6.49004C28.0973 6.79527 28.0973 7.29148 28.4025 7.59671C28.5498 7.74302 28.749 7.82514 28.9566 7.82514C29.1642 7.82514 29.3634 7.74302 29.5107 7.59671L32.6413 4.46615C32.9465 4.16085 32.9465 3.66471 32.6413 3.35948ZM11.7387 3.12939H2.34711C1.9151 3.12939 1.56445 3.48003 1.56445 3.91204C1.56445 4.34406 1.9151 4.6947 2.34711 4.6947H11.7387C12.1707 4.6947 12.5214 4.34406 12.5214 3.91204C12.5214 3.48003 12.1707 3.12939 11.7387 3.12939Z" fill="#4D4D4D"/>
<path d="M3.45407 3.91204L6.03053 1.33559C6.33576 1.03036 6.33576 0.534148 6.03053 0.22892C5.7253 -0.0763068 5.22909 -0.0763068 4.92386 0.22892L1.79337 3.35955C1.48815 3.66478 1.48815 4.16099 1.79337 4.46622L4.92393 7.59678C5.07121 7.74314 5.2704 7.8253 5.47804 7.82534C5.67842 7.82534 5.87872 7.74866 6.0306 7.59524C6.33583 7.29001 6.33583 6.7938 6.0306 6.48857L3.45407 3.91204ZM31.3049 15.6516C30.685 15.6511 30.079 15.8353 29.5643 16.1806C29.1354 14.9629 27.9724 14.0863 26.6091 14.0863C25.9892 14.0858 25.3832 14.27 24.8685 14.6154C24.4396 13.3976 23.2766 12.5211 21.9133 12.5211C21.3634 12.5204 20.8233 12.6657 20.348 12.9421V7.82526C20.348 6.09875 18.944 4.6947 17.2175 4.6947C15.491 4.6947 14.0869 6.09875 14.0869 7.82526V21.13L11.3665 19.0905C9.7543 17.8805 7.45959 18.0418 6.03053 19.4693C5.11485 20.385 5.11485 21.8736 6.03053 22.7892L17.1768 33.9371C18.5073 35.2675 20.2776 36.0001 22.1591 36.0001H25.8265C30.5724 36.0001 34.4354 32.1386 34.4354 27.3911V18.7821C34.4354 17.0556 33.0314 15.6516 31.3049 15.6516ZM32.8702 27.3911C32.8702 31.2745 29.7099 34.4348 25.8265 34.4348H22.1591C20.694 34.4348 19.3181 33.865 18.2835 32.8303L7.1372 21.6826C6.83197 21.3773 6.83197 20.8811 7.1372 20.5759C7.62241 20.0922 8.27043 19.8434 8.9216 19.8434C9.45069 19.8434 9.98285 20.0077 10.429 20.3427L14.4001 23.3213C14.5166 23.4083 14.6549 23.4613 14.7998 23.4743C14.9446 23.4873 15.0902 23.4598 15.2203 23.3949C15.35 23.3298 15.4591 23.2298 15.5354 23.1063C15.6117 22.9827 15.6522 22.8404 15.6523 22.6953V7.82526C15.6523 6.96277 16.3535 6.26002 17.2175 6.26002C18.0816 6.26002 18.7828 6.96285 18.7828 7.82526V19.5648C18.7828 19.9968 19.1334 20.3474 19.5654 20.3474C19.9975 20.3474 20.3481 19.9968 20.3481 19.5648V15.6516C20.3481 14.7891 21.0493 14.0864 21.9133 14.0864C22.7774 14.0864 23.4786 14.7892 23.4786 15.6516V19.5648C23.4786 19.9968 23.8292 20.3474 24.2612 20.3474C24.6933 20.3474 25.0439 19.9968 25.0439 19.5648V17.2169C25.0439 16.3544 25.7451 15.6516 26.6091 15.6516C27.4732 15.6516 28.1744 16.3545 28.1744 17.2169V19.5648C28.1744 19.9968 28.525 20.3474 28.9571 20.3474C29.3891 20.3474 29.7397 19.9968 29.7397 19.5648V18.7821C29.7397 17.9196 30.4409 17.2169 31.305 17.2169C32.169 17.2169 32.8702 17.9197 32.8702 18.7821V27.3911Z" fill="#4D4D4D"/>
</g>
<defs>
<clipPath id="clip0_1_13976">
<rect width="36" height="36" fill="white"/>
</clipPath>
</defs>
</svg>
