<svg width="32" height="32" viewBox="0 0 32 32" fill="none" xmlns="http://www.w3.org/2000/svg">
<rect width="32" height="32" rx="16" fill="#006EF0"/>
<path d="M25.5638 21.599H23.2863C22.4251 21.599 22.1656 20.9667 20.6217 19.5664C19.2723 18.3877 18.7025 18.2412 18.3612 18.2412C17.8891 18.2412 17.7604 18.3588 17.7604 18.9477V20.8039C17.7604 21.3059 17.5807 21.5999 16.1336 21.5999C14.7297 21.5144 13.3683 21.1278 12.1615 20.472C10.9547 19.8162 9.93709 18.9099 9.19245 17.8278C7.42498 15.8329 6.19483 13.492 5.59961 10.991C5.59961 10.6816 5.72935 10.4012 6.38005 10.4012H8.65552C9.24035 10.4012 9.45093 10.6373 9.68047 11.1828C10.7853 14.1299 12.6705 16.6935 13.436 16.6935C13.7294 16.6935 13.8571 16.5759 13.8571 15.9128V12.8771C13.7603 11.4921 12.949 11.3755 12.949 10.8743C12.9592 10.7421 13.0259 10.6187 13.135 10.5304C13.244 10.4421 13.3867 10.3957 13.5328 10.4012H17.1097C17.5987 10.4012 17.7604 10.6219 17.7604 11.152V15.2498C17.7604 15.6921 17.9699 15.8386 18.1176 15.8386C18.4111 15.8386 18.6366 15.6921 19.1745 15.2054C20.3271 13.9306 21.2691 12.5106 21.971 10.9901C22.0425 10.8073 22.1781 10.6509 22.3571 10.5447C22.5361 10.4385 22.7486 10.3884 22.962 10.4021H25.2384C25.9211 10.4021 26.0658 10.7115 25.9211 11.1529C25.0929 12.8339 24.0684 14.4296 22.8652 15.9128C22.6197 16.252 22.5219 16.4284 22.8652 16.8264C23.0907 17.1358 23.8891 17.7401 24.4251 18.3145C25.2055 19.02 25.8532 19.836 26.3432 20.7297C26.5389 21.305 26.2135 21.599 25.5638 21.599Z" fill="white"/>
</svg>
