<svg width="117" height="32" viewBox="0 0 117 32" fill="none" xmlns="http://www.w3.org/2000/svg">
<g clip-path="url(#clip0_1_10450)">
<path d="M46.4344 32H13.3087C10.9865 32 9.10229 30.1179 9.10229 27.7936V4.20636C9.10229 1.88414 10.9845 0 13.3087 0H46.4344C48.7566 0 50.6406 1.88211 50.6406 4.20636V27.7936C50.6406 30.1159 48.7586 32 46.4344 32ZM0.0039749 23.1168C0.0039749 25.1246 0.0101544 27.1325 1.36895e-05 29.1403C-0.00201445 29.7873 0.221089 30.2923 0.819391 30.5803C1.42175 30.8683 1.95313 30.7121 2.45002 30.3004C3.05035 29.7995 3.65265 29.3005 4.26109 28.8097C4.89387 28.2986 6.08043 27.8829 6.89372 27.8788C8.03556 27.8748 9.17931 27.8849 10.3212 27.8748C16.5374 27.822 21.2124 22.5225 20.4904 16.3509C19.8333 10.737 14.5601 6.64012 8.9888 7.4169C3.7562 8.14703 0.0244068 12.4224 0.00615357 17.7158C6.9147e-05 19.5168 0.00615357 21.3158 0.00615357 23.1168" fill="#E1401C"/>
<path d="M28.0075 2.9835V7.01544C28.0075 7.2 28.1556 7.34806 28.3402 7.34806H33.0352C33.2198 7.34806 33.368 7.2 33.368 7.01544V2.9835C33.368 2.79894 33.516 2.65088 33.7005 2.65088H34.7693C34.9538 2.65088 35.102 2.79894 35.102 2.9835V13.8259C35.102 14.0105 34.9538 14.1586 34.7693 14.1586H33.7005C33.516 14.1586 33.368 14.0085 33.368 13.8259V9.03749C33.368 8.85293 33.2198 8.70488 33.0352 8.70488H28.3402C28.1556 8.70488 28.0075 8.85496 28.0075 9.03749V13.8259C28.0075 14.0105 27.8574 14.1586 27.6749 14.1586H26.606C26.4214 14.1586 26.2734 14.0085 26.2734 13.8259V2.9835C26.2734 2.79894 26.4214 2.65088 26.606 2.65088H27.6749C27.8595 2.65088 28.0075 2.79894 28.0075 2.9835Z" fill="white"/>
<path fill-rule="evenodd" clip-rule="evenodd" d="M38.8853 13.7144L42.7469 2.87194C42.7936 2.74011 42.9195 2.65088 43.0614 2.65088H44.4831C44.6231 2.65088 44.7488 2.74011 44.7975 2.87194L48.659 13.7144C48.7361 13.9314 48.5759 14.1586 48.3447 14.1586H47.1987C47.0547 14.1586 46.9271 14.0653 46.8824 13.9294L46.0387 11.3313C45.9941 11.1934 45.8662 11.1022 45.7222 11.1022H41.7614C41.6174 11.1022 41.4895 11.1954 41.4449 11.3313L40.6011 13.9294C40.5565 14.0673 40.4288 14.1586 40.2848 14.1586H39.2018C38.9706 14.1586 38.8105 13.9314 38.8875 13.7144H38.8853ZM42.4001 9.74531H45.0815C45.3066 9.74531 45.4667 9.52424 45.3978 9.30926L43.757 4.22675H43.7246L42.0838 9.30926C42.0149 9.52424 42.175 9.74531 42.4001 9.74531Z" fill="white"/>
<path fill-rule="evenodd" clip-rule="evenodd" d="M90.5507 18.2693C89.995 18.8291 89.563 19.4883 89.2567 20.2447V20.2529C88.9505 21.0094 88.7964 21.8328 88.7964 22.7231C88.7964 23.6013 88.9485 24.4227 89.2548 25.1853C89.559 25.9479 89.9908 26.6091 90.5445 27.1709C91.1002 27.7306 91.7513 28.1707 92.5037 28.4892C93.2542 28.8076 94.0694 28.9678 94.9476 28.9678C95.838 28.9678 96.6554 28.8096 97.4018 28.4912C98.1461 28.1748 98.7972 27.7367 99.3529 27.1749C99.9086 26.6131 100.341 25.9519 100.647 25.1894C100.955 24.4268 101.109 23.6054 101.109 22.7272C101.109 21.8368 100.957 21.0134 100.651 20.2549C100.347 19.4984 99.9147 18.8393 99.361 18.2775C98.8073 17.7157 98.1562 17.2756 97.4119 16.9571C96.6655 16.6387 95.8483 16.4785 94.9579 16.4785C94.0777 16.4765 93.2643 16.6367 92.5119 16.9531C91.7594 17.2695 91.1064 17.7096 90.5507 18.2693ZM92.5889 26.8687C91.8953 26.4529 91.3499 25.887 90.9523 25.1691V25.1731C90.5548 24.4552 90.356 23.6399 90.356 22.7272C90.356 21.8145 90.5568 20.9992 90.9563 20.2833C91.3538 19.5653 91.9014 18.9995 92.595 18.5837C93.2887 18.1679 94.0756 17.9611 94.9538 17.9611C95.8441 17.9611 96.633 18.17 97.3206 18.5857C98.0081 19.0015 98.5517 19.5694 98.9492 20.2853C99.3467 21.0033 99.5456 21.8186 99.5456 22.7313C99.5436 23.6439 99.3446 24.4592 98.9451 25.1752C98.5455 25.8911 98.0022 26.457 97.3146 26.8727C96.6271 27.2885 95.838 27.4954 94.9476 27.4954C94.0674 27.4933 93.2825 27.2865 92.5889 26.8687Z" fill="white"/>
<path d="M105.045 28.9539H104.272C104.047 28.9539 103.873 28.7572 103.899 28.5341L105.248 16.9473C105.29 16.5843 105.773 16.489 105.952 16.8094L110.069 24.275C110.211 24.5346 110.584 24.5346 110.728 24.275L114.855 16.8155C115.031 16.495 115.516 16.5904 115.559 16.9554L116.891 28.5442C116.918 28.7673 116.743 28.9641 116.518 28.9641H115.754C115.561 28.9641 115.4 28.818 115.38 28.6274L114.618 21.6526C114.577 21.2876 114.094 21.1902 113.916 21.5086L110.728 27.2057C110.584 27.4632 110.215 27.4632 110.071 27.2057L106.891 21.5045C106.712 21.1841 106.227 21.2815 106.189 21.6465L105.418 28.6193C105.398 28.8099 105.235 28.9539 105.045 28.9539Z" fill="white"/>
<path d="M56.9058 17.9754C55.5632 17.9754 54.4841 18.4094 53.6668 19.2734C52.8514 20.1394 52.4439 21.2873 52.4439 22.7192C52.4439 24.151 52.8597 25.3132 53.6933 26.1731C54.5248 27.033 55.5977 27.463 56.9058 27.463C57.8611 27.463 58.7758 27.2237 59.6519 26.743C59.8345 26.6437 60.0636 26.7268 60.1447 26.9174L60.447 27.6253C60.5159 27.7895 60.4572 27.9842 60.301 28.0715C59.2545 28.6637 58.0679 28.9598 56.7395 28.9598C54.8857 28.9598 53.3951 28.396 52.2694 27.2703C51.1438 26.1447 50.58 24.6257 50.58 22.7172C50.58 20.8087 51.1357 19.2896 52.2451 18.164C53.3545 17.0384 54.8533 16.4746 56.7395 16.4746C58.0679 16.4746 59.2545 16.7707 60.301 17.3629C60.4572 17.4501 60.5159 17.6448 60.447 17.8091L60.1447 18.5169C60.0636 18.7075 59.8345 18.7907 59.6519 18.6913C58.7758 18.2106 57.8611 17.9713 56.9058 17.9713V17.9754Z" fill="white"/>
<path d="M40.835 16.937C40.7782 16.8092 40.6505 16.7261 40.5106 16.7261L40.5064 16.7281H39.1374C38.8738 16.7281 38.7013 17.006 38.8189 17.2432L42.8693 25.3416C42.9179 25.441 42.92 25.5627 42.8693 25.6621C42.4697 26.451 42.0133 26.9824 41.4961 27.2562C41.0012 27.5199 40.2042 27.6638 39.1049 27.6902C38.9001 27.6943 38.7419 27.8707 38.7581 28.0735L38.8211 28.8807C38.8353 29.0673 38.9934 29.2133 39.182 29.2093C40.6828 29.1728 41.8389 28.9051 42.6522 28.4021C43.5243 27.8626 44.3255 26.8384 45.0576 25.3315L48.9456 17.2372C49.0591 16.9999 48.8867 16.7261 48.6251 16.7261H47.313C47.173 16.7261 47.0451 16.8092 46.9883 16.937L43.9279 23.7293H43.8954L40.835 16.937Z" fill="white"/>
<path d="M68.9078 17.9755C67.5652 17.9755 66.4863 18.4095 65.6689 19.2735C64.8536 20.1395 64.4459 21.2874 64.4459 22.7193C64.4459 24.1511 64.8617 25.3133 65.6953 26.1732C66.5268 27.0331 67.5976 27.4631 68.9078 27.4631C69.861 27.4631 70.7778 27.2238 71.6539 26.7431C71.8365 26.6437 72.0656 26.7269 72.1467 26.9175L72.4489 27.6254C72.5179 27.7896 72.4591 27.9843 72.305 28.0715C71.2584 28.6638 70.0721 28.9599 68.7436 28.9599C66.8899 28.9599 65.3992 28.3961 64.2736 27.2704C63.1459 26.1448 62.5841 24.6258 62.5841 22.7173C62.5841 20.8088 63.1398 19.2897 64.2492 18.1641C65.3586 17.0385 66.8575 16.4746 68.7436 16.4746C70.0721 16.4746 71.2584 16.7708 72.305 17.363C72.4611 17.4502 72.5199 17.6449 72.4509 17.8092L72.1489 18.517C72.0678 18.7076 71.8384 18.7908 71.6559 18.6914C70.7798 18.2107 69.8651 17.9714 68.9098 17.9714L68.9078 17.9755Z" fill="white"/>
<path d="M78.6583 16.4766C78.8551 16.4766 79.0152 16.6368 79.0152 16.8336V21.9506H79.0497L83.8685 16.5963C83.9355 16.5212 84.0329 16.4786 84.1343 16.4786H85.3896C85.6999 16.4786 85.8623 16.8478 85.6534 17.0749L80.94 22.2305C80.8183 22.3643 80.8162 22.5671 80.9339 22.705L85.8582 28.3737C86.059 28.6049 85.8947 28.9639 85.5885 28.9639H84.3108C84.2053 28.9639 84.1078 28.9172 84.0389 28.8381L79.0497 22.9768H79.0152V28.6069C79.0152 28.8036 78.8551 28.9639 78.6583 28.9639H77.4902C77.2934 28.9639 77.1331 28.8036 77.1331 28.6069V16.8336C77.1331 16.6368 77.2934 16.4766 77.4902 16.4766H78.6583Z" fill="white"/>
<path fill-rule="evenodd" clip-rule="evenodd" d="M28.1896 28.852V24.9539L28.1877 24.9519C28.1877 24.743 28.3662 24.5827 28.5731 24.5969C29.0761 24.6335 29.5669 24.6517 30.0435 24.6517C33.1932 24.6517 34.769 23.2746 34.769 20.5184C34.769 19.3035 34.3694 18.3665 33.5704 17.7094C32.7713 17.0502 31.595 16.7217 30.0435 16.7217C28.853 16.7217 27.7172 16.7927 26.6402 16.9326C26.4638 16.9549 26.332 17.1091 26.332 17.2875V28.852C26.332 29.0487 26.4922 29.2089 26.6889 29.2089H27.8327C28.0295 29.2089 28.1896 29.0487 28.1896 28.852ZM28.4939 23.1103C28.3174 23.086 28.1877 22.9339 28.1877 22.7554V18.6363C28.1877 18.4537 28.3215 18.3036 28.502 18.2813C28.9117 18.2327 29.3681 18.2083 29.8751 18.2083C30.8872 18.2083 31.6517 18.4192 32.1689 18.8411C32.6861 19.2629 32.9457 19.8795 32.9457 20.6887C32.9457 21.498 32.682 22.1206 32.1526 22.5526C31.6233 22.9846 30.8649 23.2016 29.8751 23.2016C29.4148 23.2016 28.9543 23.1712 28.4939 23.1103Z" fill="white"/>
</g>
<defs>
<clipPath id="clip0_1_10450">
<rect width="117" height="32" fill="white"/>
</clipPath>
</defs>
</svg>
